999
Inkscape export via "Better DXF Output" (bob@bobcookdev.com)
  0
SECTION
  2
HEADER
  9
$ACADVER
  1
AC1014
  9
$HANDSEED
  5
FFFF
  0
ENDSEC
  0
SECTION
  2
TABLES
  0
TABLE
  2
VPORT
  5
8
330
0
100
AcDbSymbolTable
 70
     4
  0
VPORT
  5
2E
330
8
100
AcDbSymbolTableRecord
100
AcDbViewportTableRecord
  2
*ACTIVE
 70
     0
 10
0.0
 20
0.0
 11
1.0
 21
1.0
 12
4.25
 22
5.5
 13
0.0
 23
0.0
 14
10.0
 24
10.0
 15
10.0
 25
10.0
 16
0.0
 26
0.0
 36
1.0
 17
0.0
 27
0.0
 37
0.0
 40
11
 41
1.24
 42
50.0
 43
0.0
 44
0.0
 50
0.0
 51
0.0
 71
     0
 72
   100
 73
     1
 74
     3
 75
     0
 76
     0
 77
     0
 78
     0
  0
ENDTAB
  0
TABLE
  2
LTYPE
  5
5
330
0
100
AcDbSymbolTable
 70
     1
  0
LTYPE
  5
14
330
5
100
AcDbSymbolTableRecord
100
AcDbLinetypeTableRecord
  2
BYBLOCK
 70
     0
  3

 72
    65
 73
     0
 40
0.0
  0
LTYPE
  5
15
330
5
100
AcDbSymbolTableRecord
100
AcDbLinetypeTableRecord
  2
BYLAYER
 70
     0
  3

 72
    65
 73
     0
 40
0.0
  0
LTYPE
  5
16
330
5
100
AcDbSymbolTableRecord
100
AcDbLinetypeTableRecord
  2
CONTINUOUS
 70
     0
  3
Solid line
 72
    65
 73
     0
 40
0.0
  0
ENDTAB
  0
TABLE
  2
LAYER
  5
2
330
0
100
AcDbSymbolTable
 70
1
  0
LAYER
  5
10
330
2
100
AcDbSymbolTableRecord
100
AcDbLayerTableRecord
  2
0
 70
     0
 62
     7
  6
CONTINUOUS
  0
ENDTAB
  0
TABLE
  2
STYLE
  5
3
330
0
100
AcDbSymbolTable
 70
     1
  0
STYLE
  5
11
330
3
100
AcDbSymbolTableRecord
100
AcDbTextStyleTableRecord
  2
STANDARD
 70
     0
 40
0.0
 41
1.0
 50
0.0
 71
     0
 42
2.5
  3
txt
  4

  0
ENDTAB
  0
TABLE
  2
VIEW
  5
6
330
0
100
AcDbSymbolTable
 70
     0
  0
ENDTAB
  0
TABLE
  2
UCS
  5
7
330
0
100
AcDbSymbolTable
 70
     0
  0
ENDTAB
  0
TABLE
  2
APPID
  5
9
330
0
100
AcDbSymbolTable
 70
     2
  0
APPID
  5
12
330
9
100
AcDbSymbolTableRecord
100
AcDbRegAppTableRecord
  2
ACAD
 70
     0
  0
ENDTAB
  0
TABLE
  2
DIMSTYLE
  5
A
330
0
100
AcDbSymbolTable
 70
     1
  0
DIMSTYLE
105
27
330
A
100
AcDbSymbolTableRecord
100
AcDbDimStyleTableRecord
  2
ISO-25
 70
     0
  3

  4

  5

  6

  7

 40
1.0
 41
2.5
 42
0.625
 43
3.75
 44
1.25
 45
0.0
 46
0.0
 47
0.0
 48
0.0
140
2.5
141
2.5
142
0.0
143
0.03937007874016
144
1.0
145
0.0
146
1.0
147
0.625
 71
     0
 72
     0
 73
     0
 74
     0
 75
     0
 76
     0
 77
     1
 78
     8
170
     0
171
     3
172
     1
173
     0
174
     0
175
     0
176
     0
177
     0
178
     0
270
     2
271
     2
272
     2
273
     2
274
     3
340
11
275
     0
280
     0
281
     0
282
     0
283
     0
284
     8
285
     0
286
     0
287
     3
288
     0
  0
ENDTAB
  0
TABLE
  2
BLOCK_RECORD
  5
1
330
0
100
AcDbSymbolTable
 70
     1
  0
BLOCK_RECORD
  5
1F
330
1
100
AcDbSymbolTableRecord
100
AcDbBlockTableRecord
  2
*MODEL_SPACE
  0
BLOCK_RECORD
  5
1B
330
1
100
AcDbSymbolTableRecord
100
AcDbBlockTableRecord
  2
*PAPER_SPACE
  0
ENDTAB
  0
ENDSEC
  0
SECTION
  2
BLOCKS
  0
BLOCK
  5
20
330
1F
100
AcDbEntity
  8
0
100
AcDbBlockBegin
  2
*MODEL_SPACE
 70
     0
 10
0.0
 20
0.0
 30
0.0
  3
*MODEL_SPACE
  1

  0
ENDBLK
  5
21
330
1F
100
AcDbEntity
  8
0
100
AcDbBlockEnd
  0
BLOCK
  5
1C
330
1B
100
AcDbEntity
 67
     1
  8
0
100
AcDbBlockBegin
  2
*PAPER_SPACE
  1

  0
ENDBLK
  5
1D
330
1B
100
AcDbEntity
 67
     1
  8
0
100
AcDbBlockEnd
  0
ENDSEC
  0
SECTION
  2
ENTITIES
0
LINE
8
Layer 1
62
4
5
100
100
AcDbEntity
100
AcDbLine
10
28.109230
20
183.993202
30
0.0
11
34.929846
21
180.372896
31
0.0
0
LINE
8
Layer 1
62
4
5
101
100
AcDbEntity
100
AcDbLine
10
34.929846
20
180.372896
30
0.0
11
41.032786
21
176.921455
31
0.0
0
LINE
8
Layer 1
62
4
5
102
100
AcDbEntity
100
AcDbLine
10
41.032786
20
176.921455
30
0.0
11
46.453073
21
173.630639
31
0.0
0
LINE
8
Layer 1
62
4
5
103
100
AcDbEntity
100
AcDbLine
10
46.453073
20
173.630639
30
0.0
11
51.225729
21
170.492206
31
0.0
0
LINE
8
Layer 1
62
4
5
104
100
AcDbEntity
100
AcDbLine
10
51.225729
20
170.492206
30
0.0
11
55.385776
21
167.497915
31
0.0
0
LINE
8
Layer 1
62
4
5
105
100
AcDbEntity
100
AcDbLine
10
55.385776
20
167.497915
30
0.0
11
58.968238
21
164.639527
31
0.0
0
LINE
8
Layer 1
62
4
5
106
100
AcDbEntity
100
AcDbLine
10
58.968238
20
164.639527
30
0.0
11
62.008138
21
161.908801
31
0.0
0
LINE
8
Layer 1
62
4
5
107
100
AcDbEntity
100
AcDbLine
10
62.008138
20
161.908801
30
0.0
11
64.540497
21
159.297497
31
0.0
0
LINE
8
Layer 1
62
4
5
108
100
AcDbEntity
100
AcDbLine
10
64.540497
20
159.297497
30
0.0
11
63.805247
21
157.084568
31
0.0
0
LINE
8
Layer 1
62
4
5
109
100
AcDbEntity
100
AcDbLine
10
63.805247
20
157.084568
30
0.0
11
62.795369
21
155.135864
31
0.0
0
LINE
8
Layer 1
62
4
5
10a
100
AcDbEntity
100
AcDbLine
10
62.795369
20
155.135864
30
0.0
11
61.545342
21
153.435212
31
0.0
0
LINE
8
Layer 1
62
4
5
10b
100
AcDbEntity
100
AcDbLine
10
61.545342
20
153.435212
30
0.0
11
60.089646
21
151.966442
31
0.0
0
LINE
8
Layer 1
62
4
5
10c
100
AcDbEntity
100
AcDbLine
10
60.089646
20
151.966442
30
0.0
11
58.462767
21
150.713381
31
0.0
0
LINE
8
Layer 1
62
4
5
10d
100
AcDbEntity
100
AcDbLine
10
58.462767
20
150.713381
30
0.0
11
56.699183
21
149.659858
31
0.0
0
LINE
8
Layer 1
62
4
5
10e
100
AcDbEntity
100
AcDbLine
10
56.699183
20
149.659858
30
0.0
11
54.833376
21
148.789701
31
0.0
0
LINE
8
Layer 1
62
4
5
10f
100
AcDbEntity
100
AcDbLine
10
54.833376
20
148.789701
30
0.0
11
52.899826
21
148.086739
31
0.0
0
LINE
8
Layer 1
62
4
5
110
100
AcDbEntity
100
AcDbLine
10
52.899826
20
148.086739
30
0.0
11
48.967425
21
147.117712
31
0.0
0
LINE
8
Layer 1
62
4
5
111
100
AcDbEntity
100
AcDbLine
10
48.967425
20
147.117712
30
0.0
11
45.177829
21
146.623402
31
0.0
0
LINE
8
Layer 1
62
4
5
112
100
AcDbEntity
100
AcDbLine
10
45.177829
20
146.623402
30
0.0
11
41.806888
21
146.474441
31
0.0
0
LINE
8
Layer 1
62
4
5
113
100
AcDbEntity
100
AcDbLine
10
41.806888
20
146.474441
30
0.0
11
39.130453
21
146.541453
31
0.0
0
LINE
8
Layer 1
62
4
5
114
100
AcDbEntity
100
AcDbLine
10
39.130453
20
146.541453
30
0.0
11
40.754127
21
147.510298
31
0.0
0
LINE
8
Layer 1
62
4
5
115
100
AcDbEntity
100
AcDbLine
10
40.754127
20
147.510298
30
0.0
11
41.345396
21
148.117257
31
0.0
0
LINE
8
Layer 1
62
4
5
116
100
AcDbEntity
100
AcDbLine
10
41.345396
20
148.117257
30
0.0
11
41.732685
21
148.837540
31
0.0
0
LINE
8
Layer 1
62
4
5
117
100
AcDbEntity
100
AcDbLine
10
41.732685
20
148.837540
30
0.0
11
41.003221
21
149.151885
31
0.0
0
LINE
8
Layer 1
62
4
5
118
100
AcDbEntity
100
AcDbLine
10
41.003221
20
149.151885
30
0.0
11
39.979905
21
149.336428
31
0.0
0
LINE
8
Layer 1
62
4
5
119
100
AcDbEntity
100
AcDbLine
10
39.979905
20
149.336428
30
0.0
11
37.305474
21
149.552803
31
0.0
0
LINE
8
Layer 1
62
4
5
11a
100
AcDbEntity
100
AcDbLine
10
37.305474
20
149.552803
30
0.0
11
34.216903
21
149.960056
31
0.0
0
LINE
8
Layer 1
62
4
5
11b
100
AcDbEntity
100
AcDbLine
10
34.216903
20
149.960056
30
0.0
11
32.675913
21
150.383197
31
0.0
0
LINE
8
Layer 1
62
4
5
11c
100
AcDbEntity
100
AcDbLine
10
32.675913
20
150.383197
30
0.0
11
31.221705
21
151.031581
31
0.0
0
LINE
8
Layer 1
62
4
5
11d
100
AcDbEntity
100
AcDbLine
10
31.221705
20
151.031581
30
0.0
11
32.883484
21
151.564608
31
0.0
0
LINE
8
Layer 1
62
4
5
11e
100
AcDbEntity
100
AcDbLine
10
32.883484
20
151.564608
30
0.0
11
33.465763
21
152.007509
31
0.0
0
LINE
8
Layer 1
62
4
5
11f
100
AcDbEntity
100
AcDbLine
10
33.465763
20
152.007509
30
0.0
11
33.977010
21
152.664355
31
0.0
0
LINE
8
Layer 1
62
4
5
120
100
AcDbEntity
100
AcDbLine
10
33.977010
20
152.664355
30
0.0
11
28.750582
21
154.353826
31
0.0
0
LINE
8
Layer 1
62
4
5
121
100
AcDbEntity
100
AcDbLine
10
28.750582
20
154.353826
30
0.0
11
26.412779
21
155.355939
31
0.0
0
LINE
8
Layer 1
62
4
5
122
100
AcDbEntity
100
AcDbLine
10
26.412779
20
155.355939
30
0.0
11
24.486513
21
156.593215
31
0.0
0
LINE
8
Layer 1
62
4
5
123
100
AcDbEntity
100
AcDbLine
10
24.486513
20
156.593215
30
0.0
11
26.288065
21
156.589303
31
0.0
0
LINE
8
Layer 1
62
4
5
124
100
AcDbEntity
100
AcDbLine
10
26.288065
20
156.589303
30
0.0
11
27.267251
21
156.822583
31
0.0
0
LINE
8
Layer 1
62
4
5
125
100
AcDbEntity
100
AcDbLine
10
27.267251
20
156.822583
30
0.0
11
28.364349
21
157.409602
31
0.0
0
LINE
8
Layer 1
62
4
5
126
100
AcDbEntity
100
AcDbLine
10
28.364349
20
157.409602
30
0.0
11
23.622177
21
159.880898
31
0.0
0
LINE
8
Layer 1
62
4
5
127
100
AcDbEntity
100
AcDbLine
10
23.622177
20
159.880898
30
0.0
11
21.356998
21
161.293058
31
0.0
0
LINE
8
Layer 1
62
4
5
128
100
AcDbEntity
100
AcDbLine
10
21.356998
20
161.293058
30
0.0
11
19.282047
21
163.022263
31
0.0
0
LINE
8
Layer 1
62
4
5
129
100
AcDbEntity
100
AcDbLine
10
19.282047
20
163.022263
30
0.0
11
21.638403
21
163.119694
31
0.0
0
LINE
8
Layer 1
62
4
5
12a
100
AcDbEntity
100
AcDbLine
10
21.638403
20
163.119694
30
0.0
11
22.567564
21
163.292917
31
0.0
0
LINE
8
Layer 1
62
4
5
12b
100
AcDbEntity
100
AcDbLine
10
22.567564
20
163.292917
30
0.0
11
23.159885
21
163.634553
31
0.0
0
LINE
8
Layer 1
62
4
5
12c
100
AcDbEntity
100
AcDbLine
10
23.159885
20
163.634553
30
0.0
11
21.090770
21
165.005365
31
0.0
0
LINE
8
Layer 1
62
4
5
12d
100
AcDbEntity
100
AcDbLine
10
21.090770
20
165.005365
30
0.0
11
19.186950
21
166.449642
31
0.0
0
LINE
8
Layer 1
62
4
5
12e
100
AcDbEntity
100
AcDbLine
10
19.186950
20
166.449642
30
0.0
11
17.445483
21
167.966076
31
0.0
0
LINE
8
Layer 1
62
4
5
12f
100
AcDbEntity
100
AcDbLine
10
17.445483
20
167.966076
30
0.0
11
15.863427
21
169.553359
31
0.0
0
LINE
8
Layer 1
62
4
5
130
100
AcDbEntity
100
AcDbLine
10
15.863427
20
169.553359
30
0.0
11
17.333522
21
169.438039
31
0.0
0
LINE
8
Layer 1
62
4
5
131
100
AcDbEntity
100
AcDbLine
10
17.333522
20
169.438039
30
0.0
11
18.396533
21
169.481028
31
0.0
0
LINE
8
Layer 1
62
4
5
132
100
AcDbEntity
100
AcDbLine
10
18.396533
20
169.481028
30
0.0
11
19.136938
21
169.649475
31
0.0
0
LINE
8
Layer 1
62
4
5
133
100
AcDbEntity
100
AcDbLine
10
19.136938
20
169.649475
30
0.0
11
19.639216
21
169.910529
31
0.0
0
LINE
8
Layer 1
62
4
5
134
100
AcDbEntity
100
AcDbLine
10
19.639216
20
169.910529
30
0.0
11
16.204114
21
173.135573
31
0.0
0
LINE
8
Layer 1
62
4
5
135
100
AcDbEntity
100
AcDbLine
10
16.204114
20
173.135573
30
0.0
11
14.634178
21
174.836663
31
0.0
0
LINE
8
Layer 1
62
4
5
136
100
AcDbEntity
100
AcDbLine
10
14.634178
20
174.836663
30
0.0
11
13.414266
21
176.747767
31
0.0
0
LINE
8
Layer 1
62
4
5
137
100
AcDbEntity
100
AcDbLine
10
13.414266
20
176.747767
30
0.0
11
14.646466
21
176.390683
31
0.0
0
LINE
8
Layer 1
62
4
5
138
100
AcDbEntity
100
AcDbLine
10
14.646466
20
176.390683
30
0.0
11
15.797988
21
176.235294
31
0.0
0
LINE
8
Layer 1
62
4
5
139
100
AcDbEntity
100
AcDbLine
10
15.797988
20
176.235294
30
0.0
11
16.841913
21
176.348898
31
0.0
0
LINE
8
Layer 1
62
4
5
13a
100
AcDbEntity
100
AcDbLine
10
16.841913
20
176.348898
30
0.0
11
17.751322
21
176.798793
31
0.0
0
LINE
8
Layer 1
62
4
5
13b
100
AcDbEntity
100
AcDbLine
10
17.751322
20
176.798793
30
0.0
11
17.368679
21
177.397546
31
0.0
0
LINE
8
Layer 1
62
4
5
13c
100
AcDbEntity
100
AcDbLine
10
17.368679
20
177.397546
30
0.0
11
16.803092
21
177.974387
31
0.0
0
LINE
8
Layer 1
62
4
5
13d
100
AcDbEntity
100
AcDbLine
10
16.803092
20
177.974387
30
0.0
11
15.299435
21
179.230522
31
0.0
0
LINE
8
Layer 1
62
4
5
13e
100
AcDbEntity
100
AcDbLine
10
15.299435
20
179.230522
30
0.0
11
13.593044
21
180.903565
31
0.0
0
LINE
8
Layer 1
62
4
5
13f
100
AcDbEntity
100
AcDbLine
10
13.593044
20
180.903565
30
0.0
11
12.774040
21
182.001544
31
0.0
0
LINE
8
Layer 1
62
4
5
140
100
AcDbEntity
100
AcDbLine
10
12.774040
20
182.001544
30
0.0
11
12.036612
21
183.329888
31
0.0
0
LINE
8
Layer 1
62
4
5
141
100
AcDbEntity
100
AcDbLine
10
12.036612
20
183.329888
30
0.0
11
14.576071
21
183.120287
31
0.0
0
LINE
8
Layer 1
62
4
5
142
100
AcDbEntity
100
AcDbLine
10
14.576071
20
183.120287
30
0.0
11
15.528376
21
183.142456
31
0.0
0
LINE
8
Layer 1
62
4
5
143
100
AcDbEntity
100
AcDbLine
10
15.528376
20
183.142456
30
0.0
11
16.067522
21
183.329888
31
0.0
0
LINE
8
Layer 1
62
4
5
144
100
AcDbEntity
100
AcDbLine
10
16.067522
20
183.329888
30
0.0
11
15.348360
21
185.594780
31
0.0
0
LINE
8
Layer 1
62
4
5
145
100
AcDbEntity
100
AcDbLine
10
15.348360
20
185.594780
30
0.0
11
14.466417
21
187.452723
31
0.0
0
LINE
8
Layer 1
62
4
5
146
100
AcDbEntity
100
AcDbLine
10
14.466417
20
187.452723
30
0.0
11
12.444807
21
190.524298
31
0.0
0
LINE
8
Layer 1
62
4
5
147
100
AcDbEntity
100
AcDbLine
10
12.444807
20
190.524298
30
0.0
11
18.609174
21
190.578164
31
0.0
0
LINE
8
Layer 1
62
4
5
148
100
AcDbEntity
100
AcDbLine
10
18.609174
20
190.578164
30
0.0
11
20.923923
21
190.655147
31
0.0
0
LINE
8
Layer 1
62
4
5
149
100
AcDbEntity
100
AcDbLine
10
20.923923
20
190.655147
30
0.0
11
21.562678
21
190.727461
31
0.0
0
LINE
8
Layer 1
62
4
5
14a
100
AcDbEntity
100
AcDbLine
10
21.562678
20
190.727461
30
0.0
11
21.731208
21
190.830443
31
0.0
0
LINE
8
Layer 1
62
4
5
14b
100
AcDbEntity
100
AcDbLine
10
21.731208
20
190.830443
30
0.0
11
19.384096
21
193.228579
31
0.0
0
LINE
8
Layer 1
62
4
5
14c
100
AcDbEntity
100
AcDbLine
10
19.384096
20
193.228579
30
0.0
11
20.776334
21
193.506627
31
0.0
0
LINE
8
Layer 1
62
4
5
14d
100
AcDbEntity
100
AcDbLine
10
20.776334
20
193.506627
30
0.0
11
22.163460
21
193.611238
31
0.0
0
LINE
8
Layer 1
62
4
5
14e
100
AcDbEntity
100
AcDbLine
10
22.163460
20
193.611238
30
0.0
11
24.869594
21
193.415246
31
0.0
0
LINE
8
Layer 1
62
4
5
14f
100
AcDbEntity
100
AcDbLine
10
24.869594
20
193.415246
30
0.0
11
27.396944
21
192.870800
31
0.0
0
LINE
8
Layer 1
62
4
5
150
100
AcDbEntity
100
AcDbLine
10
27.396944
20
192.870800
30
0.0
11
29.639954
21
192.208096
31
0.0
0
LINE
8
Layer 1
62
4
5
151
100
AcDbEntity
100
AcDbLine
10
29.639954
20
192.208096
30
0.0
11
29.991122
21
192.585680
31
0.0
0
LINE
8
Layer 1
62
4
5
152
100
AcDbEntity
100
AcDbLine
10
29.991122
20
192.585680
30
0.0
11
30.134672
21
192.984741
31
0.0
0
LINE
8
Layer 1
62
4
5
153
100
AcDbEntity
100
AcDbLine
10
30.134672
20
192.984741
30
0.0
11
30.096911
21
193.402559
31
0.0
0
LINE
8
Layer 1
62
4
5
154
100
AcDbEntity
100
AcDbLine
10
30.096911
20
193.402559
30
0.0
11
29.904148
21
193.836412
31
0.0
0
LINE
8
Layer 1
62
4
5
155
100
AcDbEntity
100
AcDbLine
10
29.904148
20
193.836412
30
0.0
11
29.158846
21
194.741336
31
0.0
0
LINE
8
Layer 1
62
4
5
156
100
AcDbEntity
100
AcDbLine
10
29.158846
20
194.741336
30
0.0
11
28.109230
21
195.677740
31
0.0
0
LINE
8
Layer 1
62
4
5
157
100
AcDbEntity
100
AcDbLine
10
28.109230
20
195.677740
30
0.0
11
32.611724
21
194.822696
31
0.0
0
LINE
8
Layer 1
62
4
5
158
100
AcDbEntity
100
AcDbLine
10
32.611724
20
194.822696
30
0.0
11
36.681291
21
193.534725
31
0.0
0
LINE
8
Layer 1
62
4
5
159
100
AcDbEntity
100
AcDbLine
10
36.681291
20
193.534725
30
0.0
11
37.035584
21
194.000320
31
0.0
0
LINE
8
Layer 1
62
4
5
15a
100
AcDbEntity
100
AcDbLine
10
37.035584
20
194.000320
30
0.0
11
37.104749
21
194.465916
31
0.0
0
LINE
8
Layer 1
62
4
5
15b
100
AcDbEntity
100
AcDbLine
10
37.104749
20
194.465916
30
0.0
11
36.945204
21
194.931512
31
0.0
0
LINE
8
Layer 1
62
4
5
15c
100
AcDbEntity
100
AcDbLine
10
36.945204
20
194.931512
30
0.0
11
36.613364
21
195.397107
31
0.0
0
LINE
8
Layer 1
62
4
5
15d
100
AcDbEntity
100
AcDbLine
10
36.613364
20
195.397107
30
0.0
11
34.691348
21
197.259490
31
0.0
0
LINE
8
Layer 1
62
4
5
15e
100
AcDbEntity
100
AcDbLine
10
34.691348
20
197.259490
30
0.0
11
37.860029
21
196.502472
31
0.0
0
LINE
8
Layer 1
62
4
5
15f
100
AcDbEntity
100
AcDbLine
10
37.860029
20
196.502472
30
0.0
11
40.238404
21
195.640079
31
0.0
0
LINE
8
Layer 1
62
4
5
160
100
AcDbEntity
100
AcDbLine
10
40.238404
20
195.640079
30
0.0
11
42.088315
21
194.707225
31
0.0
0
LINE
8
Layer 1
62
4
5
161
100
AcDbEntity
100
AcDbLine
10
42.088315
20
194.707225
30
0.0
11
43.671606
21
193.738821
31
0.0
0
LINE
8
Layer 1
62
4
5
162
100
AcDbEntity
100
AcDbLine
10
43.671606
20
193.738821
30
0.0
11
44.100272
21
194.263808
31
0.0
0
LINE
8
Layer 1
62
4
5
163
100
AcDbEntity
100
AcDbLine
10
44.100272
20
194.263808
30
0.0
11
44.296609
21
194.771585
31
0.0
0
LINE
8
Layer 1
62
4
5
164
100
AcDbEntity
100
AcDbLine
10
44.296609
20
194.771585
30
0.0
11
44.299143
21
195.265007
31
0.0
0
LINE
8
Layer 1
62
4
5
165
100
AcDbEntity
100
AcDbLine
10
44.299143
20
195.265007
30
0.0
11
44.146400
21
195.746926
31
0.0
0
LINE
8
Layer 1
62
4
5
166
100
AcDbEntity
100
AcDbLine
10
44.146400
20
195.746926
30
0.0
11
43.529184
21
196.687674
31
0.0
0
LINE
8
Layer 1
62
4
5
167
100
AcDbEntity
100
AcDbLine
10
43.529184
20
196.687674
30
0.0
11
42.753170
21
197.616659
31
0.0
0
LINE
8
Layer 1
62
4
5
168
100
AcDbEntity
100
AcDbLine
10
42.753170
20
197.616659
30
0.0
11
45.201683
21
196.529417
31
0.0
0
LINE
8
Layer 1
62
4
5
169
100
AcDbEntity
100
AcDbLine
10
45.201683
20
196.529417
30
0.0
11
47.158972
21
195.333014
31
0.0
0
LINE
8
Layer 1
62
4
5
16a
100
AcDbEntity
100
AcDbLine
10
47.158972
20
195.333014
30
0.0
11
48.801254
21
194.066609
31
0.0
0
LINE
8
Layer 1
62
4
5
16b
100
AcDbEntity
100
AcDbLine
10
48.801254
20
194.066609
30
0.0
11
50.304748
21
192.769362
31
0.0
0
LINE
8
Layer 1
62
4
5
16c
100
AcDbEntity
100
AcDbLine
10
50.304748
20
192.769362
30
0.0
11
50.837723
21
193.434528
31
0.0
0
LINE
8
Layer 1
62
4
5
16d
100
AcDbEntity
100
AcDbLine
10
50.837723
20
193.434528
30
0.0
11
51.258149
21
194.174728
31
0.0
0
LINE
8
Layer 1
62
4
5
16e
100
AcDbEntity
100
AcDbLine
10
51.258149
20
194.174728
30
0.0
11
51.316678
21
195.156193
31
0.0
0
LINE
8
Layer 1
62
4
5
16f
100
AcDbEntity
100
AcDbLine
10
51.316678
20
195.156193
30
0.0
11
50.763966
21
196.545151
31
0.0
0
LINE
8
Layer 1
62
4
5
170
100
AcDbEntity
100
AcDbLine
10
50.763966
20
196.545151
30
0.0
11
52.599995
21
195.369118
31
0.0
0
LINE
8
Layer 1
62
4
5
171
100
AcDbEntity
100
AcDbLine
10
52.599995
20
195.369118
30
0.0
11
54.207218
21
194.097749
31
0.0
0
LINE
8
Layer 1
62
4
5
172
100
AcDbEntity
100
AcDbLine
10
54.207218
20
194.097749
30
0.0
11
55.598029
21
192.736209
31
0.0
0
LINE
8
Layer 1
62
4
5
173
100
AcDbEntity
100
AcDbLine
10
55.598029
20
192.736209
30
0.0
11
56.784821
21
191.289661
31
0.0
0
LINE
8
Layer 1
62
4
5
174
100
AcDbEntity
100
AcDbLine
10
56.784821
20
191.289661
30
0.0
11
57.289062
21
191.691413
31
0.0
0
LINE
8
Layer 1
62
4
5
175
100
AcDbEntity
100
AcDbLine
10
57.289062
20
191.691413
30
0.0
11
57.615307
21
192.122832
31
0.0
0
LINE
8
Layer 1
62
4
5
176
100
AcDbEntity
100
AcDbLine
10
57.615307
20
192.122832
30
0.0
11
57.870911
21
193.051817
31
0.0
0
LINE
8
Layer 1
62
4
5
177
100
AcDbEntity
100
AcDbLine
10
57.870911
20
193.051817
30
0.0
11
57.754280
21
195.014426
31
0.0
0
LINE
8
Layer 1
62
4
5
178
100
AcDbEntity
100
AcDbLine
10
57.754280
20
195.014426
30
0.0
11
59.621502
21
193.338608
31
0.0
0
LINE
8
Layer 1
62
4
5
179
100
AcDbEntity
100
AcDbLine
10
59.621502
20
193.338608
30
0.0
11
61.246506
21
191.628188
31
0.0
0
LINE
8
Layer 1
62
4
5
17a
100
AcDbEntity
100
AcDbLine
10
61.246506
20
191.628188
30
0.0
11
64.285376
21
188.177185
31
0.0
0
LINE
8
Layer 1
62
4
5
17b
100
AcDbEntity
100
AcDbLine
10
64.285376
20
188.177185
30
0.0
11
64.593495
21
188.544978
31
0.0
0
LINE
8
Layer 1
62
4
5
17c
100
AcDbEntity
100
AcDbLine
10
64.593495
20
188.544978
30
0.0
11
64.882713
21
189.177392
31
0.0
0
LINE
8
Layer 1
62
4
5
17d
100
AcDbEntity
100
AcDbLine
10
64.882713
20
189.177392
30
0.0
11
65.407907
21
191.187612
31
0.0
0
LINE
8
Layer 1
62
4
5
17e
100
AcDbEntity
100
AcDbLine
10
65.407907
20
191.187612
30
0.0
11
67.907174
21
188.427787
31
0.0
0
LINE
8
Layer 1
62
4
5
17f
100
AcDbEntity
100
AcDbLine
10
67.907174
20
188.427787
30
0.0
11
70.363134
21
184.998637
31
0.0
0
LINE
8
Layer 1
62
4
5
180
100
AcDbEntity
100
AcDbLine
10
70.363134
20
184.998637
30
0.0
11
71.483165
21
183.102827
31
0.0
0
LINE
8
Layer 1
62
4
5
181
100
AcDbEntity
100
AcDbLine
10
71.483165
20
183.102827
30
0.0
11
72.482318
21
181.123400
31
0.0
0
LINE
8
Layer 1
62
4
5
182
100
AcDbEntity
100
AcDbLine
10
72.482318
20
181.123400
30
0.0
11
73.323908
21
179.088260
31
0.0
0
LINE
8
Layer 1
62
4
5
183
100
AcDbEntity
100
AcDbLine
10
73.323908
20
179.088260
30
0.0
11
73.971249
21
177.025312
31
0.0
0
LINE
8
Layer 1
62
4
5
184
100
AcDbEntity
100
AcDbLine
10
73.971249
20
177.025312
30
0.0
11
74.387662
21
174.962461
31
0.0
0
LINE
8
Layer 1
62
4
5
185
100
AcDbEntity
100
AcDbLine
10
74.387662
20
174.962461
30
0.0
11
74.536458
21
172.927611
31
0.0
0
LINE
8
Layer 1
62
4
5
186
100
AcDbEntity
100
AcDbLine
10
74.536458
20
172.927611
30
0.0
11
74.380957
21
170.948666
31
0.0
0
LINE
8
Layer 1
62
4
5
187
100
AcDbEntity
100
AcDbLine
10
74.380957
20
170.948666
30
0.0
11
73.884471
21
169.053533
31
0.0
0
LINE
8
Layer 1
62
4
5
188
100
AcDbEntity
100
AcDbLine
10
73.884471
20
169.053533
30
0.0
11
73.010319
21
167.270112
31
0.0
0
LINE
8
Layer 1
62
4
5
189
100
AcDbEntity
100
AcDbLine
10
73.010319
20
167.270112
30
0.0
11
71.721816
21
165.626313
31
0.0
0
LINE
8
Layer 1
62
4
5
18a
100
AcDbEntity
100
AcDbLine
10
71.721816
20
165.626313
30
0.0
11
69.982277
21
164.150038
31
0.0
0
LINE
8
Layer 1
62
4
5
18b
100
AcDbEntity
100
AcDbLine
10
69.982277
20
164.150038
30
0.0
11
67.755019
21
162.869191
31
0.0
0
LINE
8
Layer 1
62
4
5
18c
100
AcDbEntity
100
AcDbLine
10
67.755019
20
162.869191
30
0.0
11
63.428820
21
166.238616
31
0.0
0
LINE
8
Layer 1
62
4
5
18d
100
AcDbEntity
100
AcDbLine
10
63.428820
20
166.238616
30
0.0
11
58.905460
21
169.379749
31
0.0
0
LINE
8
Layer 1
62
4
5
18e
100
AcDbEntity
100
AcDbLine
10
58.905460
20
169.379749
30
0.0
11
54.193588
21
172.302605
31
0.0
0
LINE
8
Layer 1
62
4
5
18f
100
AcDbEntity
100
AcDbLine
10
54.193588
20
172.302605
30
0.0
11
49.301852
21
175.017197
31
0.0
0
LINE
8
Layer 1
62
4
5
190
100
AcDbEntity
100
AcDbLine
10
49.301852
20
175.017197
30
0.0
11
44.238900
21
177.533539
31
0.0
0
LINE
8
Layer 1
62
4
5
191
100
AcDbEntity
100
AcDbLine
10
44.238900
20
177.533539
30
0.0
11
39.013380
21
179.861645
31
0.0
0
LINE
8
Layer 1
62
4
5
192
100
AcDbEntity
100
AcDbLine
10
39.013380
20
179.861645
30
0.0
11
33.633941
21
182.011528
31
0.0
0
LINE
8
Layer 1
62
4
5
193
100
AcDbEntity
100
AcDbLine
10
33.633941
20
182.011528
30
0.0
11
28.109230
21
183.993202
31
0.0
0
LINE
8
Layer 1
62
4
5
194
100
AcDbEntity
100
AcDbLine
10
28.109230
20
183.993202
30
0.0
11
28.109230
21
183.993202
31
0.0
0
LINE
8
Layer 1
62
4
5
195
100
AcDbEntity
100
AcDbLine
10
129.859662
20
183.993202
30
0.0
11
123.039045
21
180.372896
31
0.0
0
LINE
8
Layer 1
62
4
5
196
100
AcDbEntity
100
AcDbLine
10
123.039045
20
180.372896
30
0.0
11
116.936105
21
176.921455
31
0.0
0
LINE
8
Layer 1
62
4
5
197
100
AcDbEntity
100
AcDbLine
10
116.936105
20
176.921455
30
0.0
11
111.515818
21
173.630638
31
0.0
0
LINE
8
Layer 1
62
4
5
198
100
AcDbEntity
100
AcDbLine
10
111.515818
20
173.630638
30
0.0
11
106.743161
21
170.492206
31
0.0
0
LINE
8
Layer 1
62
4
5
199
100
AcDbEntity
100
AcDbLine
10
106.743161
20
170.492206
30
0.0
11
102.583114
21
167.497915
31
0.0
0
LINE
8
Layer 1
62
4
5
19a
100
AcDbEntity
100
AcDbLine
10
102.583114
20
167.497915
30
0.0
11
99.000651
21
164.639526
31
0.0
0
LINE
8
Layer 1
62
4
5
19b
100
AcDbEntity
100
AcDbLine
10
99.000651
20
164.639526
30
0.0
11
95.960752
21
161.908802
31
0.0
0
LINE
8
Layer 1
62
4
5
19c
100
AcDbEntity
100
AcDbLine
10
95.960752
20
161.908802
30
0.0
11
93.428394
21
159.297497
31
0.0
0
LINE
8
Layer 1
62
4
5
19d
100
AcDbEntity
100
AcDbLine
10
93.428394
20
159.297497
30
0.0
11
94.163643
21
157.084568
31
0.0
0
LINE
8
Layer 1
62
4
5
19e
100
AcDbEntity
100
AcDbLine
10
94.163643
20
157.084568
30
0.0
11
95.173523
21
155.135865
31
0.0
0
LINE
8
Layer 1
62
4
5
19f
100
AcDbEntity
100
AcDbLine
10
95.173523
20
155.135865
30
0.0
11
96.423550
21
153.435213
31
0.0
0
LINE
8
Layer 1
62
4
5
1a0
100
AcDbEntity
100
AcDbLine
10
96.423550
20
153.435213
30
0.0
11
97.879244
21
151.966442
31
0.0
0
LINE
8
Layer 1
62
4
5
1a1
100
AcDbEntity
100
AcDbLine
10
97.879244
20
151.966442
30
0.0
11
99.506123
21
150.713381
31
0.0
0
LINE
8
Layer 1
62
4
5
1a2
100
AcDbEntity
100
AcDbLine
10
99.506123
20
150.713381
30
0.0
11
101.269707
21
149.659859
31
0.0
0
LINE
8
Layer 1
62
4
5
1a3
100
AcDbEntity
100
AcDbLine
10
101.269707
20
149.659859
30
0.0
11
103.135515
21
148.789701
31
0.0
0
LINE
8
Layer 1
62
4
5
1a4
100
AcDbEntity
100
AcDbLine
10
103.135515
20
148.789701
30
0.0
11
105.069064
21
148.086739
31
0.0
0
LINE
8
Layer 1
62
4
5
1a5
100
AcDbEntity
100
AcDbLine
10
105.069064
20
148.086739
30
0.0
11
109.001467
21
147.117712
31
0.0
0
LINE
8
Layer 1
62
4
5
1a6
100
AcDbEntity
100
AcDbLine
10
109.001467
20
147.117712
30
0.0
11
112.791062
21
146.623402
31
0.0
0
LINE
8
Layer 1
62
4
5
1a7
100
AcDbEntity
100
AcDbLine
10
112.791062
20
146.623402
30
0.0
11
116.162003
21
146.474442
31
0.0
0
LINE
8
Layer 1
62
4
5
1a8
100
AcDbEntity
100
AcDbLine
10
116.162003
20
146.474442
30
0.0
11
118.838438
21
146.541453
31
0.0
0
LINE
8
Layer 1
62
4
5
1a9
100
AcDbEntity
100
AcDbLine
10
118.838438
20
146.541453
30
0.0
11
117.214764
21
147.510298
31
0.0
0
LINE
8
Layer 1
62
4
5
1aa
100
AcDbEntity
100
AcDbLine
10
117.214764
20
147.510298
30
0.0
11
116.623495
21
148.117257
31
0.0
0
LINE
8
Layer 1
62
4
5
1ab
100
AcDbEntity
100
AcDbLine
10
116.623495
20
148.117257
30
0.0
11
116.236205
21
148.837540
31
0.0
0
LINE
8
Layer 1
62
4
5
1ac
100
AcDbEntity
100
AcDbLine
10
116.236205
20
148.837540
30
0.0
11
116.965669
21
149.151885
31
0.0
0
LINE
8
Layer 1
62
4
5
1ad
100
AcDbEntity
100
AcDbLine
10
116.965669
20
149.151885
30
0.0
11
117.988986
21
149.336428
31
0.0
0
LINE
8
Layer 1
62
4
5
1ae
100
AcDbEntity
100
AcDbLine
10
117.988986
20
149.336428
30
0.0
11
120.663417
21
149.552803
31
0.0
0
LINE
8
Layer 1
62
4
5
1af
100
AcDbEntity
100
AcDbLine
10
120.663417
20
149.552803
30
0.0
11
123.751988
21
149.960056
31
0.0
0
LINE
8
Layer 1
62
4
5
1b0
100
AcDbEntity
100
AcDbLine
10
123.751988
20
149.960056
30
0.0
11
125.292978
21
150.383197
31
0.0
0
LINE
8
Layer 1
62
4
5
1b1
100
AcDbEntity
100
AcDbLine
10
125.292978
20
150.383197
30
0.0
11
126.747185
21
151.031581
31
0.0
0
LINE
8
Layer 1
62
4
5
1b2
100
AcDbEntity
100
AcDbLine
10
126.747185
20
151.031581
30
0.0
11
125.085407
21
151.564608
31
0.0
0
LINE
8
Layer 1
62
4
5
1b3
100
AcDbEntity
100
AcDbLine
10
125.085407
20
151.564608
30
0.0
11
124.503128
21
152.007509
31
0.0
0
LINE
8
Layer 1
62
4
5
1b4
100
AcDbEntity
100
AcDbLine
10
124.503128
20
152.007509
30
0.0
11
123.991881
21
152.664355
31
0.0
0
LINE
8
Layer 1
62
4
5
1b5
100
AcDbEntity
100
AcDbLine
10
123.991881
20
152.664355
30
0.0
11
129.218310
21
154.353826
31
0.0
0
LINE
8
Layer 1
62
4
5
1b6
100
AcDbEntity
100
AcDbLine
10
129.218310
20
154.353826
30
0.0
11
131.556113
21
155.355939
31
0.0
0
LINE
8
Layer 1
62
4
5
1b7
100
AcDbEntity
100
AcDbLine
10
131.556113
20
155.355939
30
0.0
11
133.482379
21
156.593215
31
0.0
0
LINE
8
Layer 1
62
4
5
1b8
100
AcDbEntity
100
AcDbLine
10
133.482379
20
156.593215
30
0.0
11
131.680827
21
156.589303
31
0.0
0
LINE
8
Layer 1
62
4
5
1b9
100
AcDbEntity
100
AcDbLine
10
131.680827
20
156.589303
30
0.0
11
130.701641
21
156.822583
31
0.0
0
LINE
8
Layer 1
62
4
5
1ba
100
AcDbEntity
100
AcDbLine
10
130.701641
20
156.822583
30
0.0
11
129.604541
21
157.409602
31
0.0
0
LINE
8
Layer 1
62
4
5
1bb
100
AcDbEntity
100
AcDbLine
10
129.604541
20
157.409602
30
0.0
11
134.346714
21
159.880898
31
0.0
0
LINE
8
Layer 1
62
4
5
1bc
100
AcDbEntity
100
AcDbLine
10
134.346714
20
159.880898
30
0.0
11
136.611893
21
161.293058
31
0.0
0
LINE
8
Layer 1
62
4
5
1bd
100
AcDbEntity
100
AcDbLine
10
136.611893
20
161.293058
30
0.0
11
138.686845
21
163.022263
31
0.0
0
LINE
8
Layer 1
62
4
5
1be
100
AcDbEntity
100
AcDbLine
10
138.686845
20
163.022263
30
0.0
11
136.330489
21
163.119694
31
0.0
0
LINE
8
Layer 1
62
4
5
1bf
100
AcDbEntity
100
AcDbLine
10
136.330489
20
163.119694
30
0.0
11
135.401328
21
163.292917
31
0.0
0
LINE
8
Layer 1
62
4
5
1c0
100
AcDbEntity
100
AcDbLine
10
135.401328
20
163.292917
30
0.0
11
134.809007
21
163.634553
31
0.0
0
LINE
8
Layer 1
62
4
5
1c1
100
AcDbEntity
100
AcDbLine
10
134.809007
20
163.634553
30
0.0
11
136.878122
21
165.005365
31
0.0
0
LINE
8
Layer 1
62
4
5
1c2
100
AcDbEntity
100
AcDbLine
10
136.878122
20
165.005365
30
0.0
11
138.781942
21
166.449642
31
0.0
0
LINE
8
Layer 1
62
4
5
1c3
100
AcDbEntity
100
AcDbLine
10
138.781942
20
166.449642
30
0.0
11
140.523409
21
167.966076
31
0.0
0
LINE
8
Layer 1
62
4
5
1c4
100
AcDbEntity
100
AcDbLine
10
140.523409
20
167.966076
30
0.0
11
142.105465
21
169.553359
31
0.0
0
LINE
8
Layer 1
62
4
5
1c5
100
AcDbEntity
100
AcDbLine
10
142.105465
20
169.553359
30
0.0
11
140.635370
21
169.438039
31
0.0
0
LINE
8
Layer 1
62
4
5
1c6
100
AcDbEntity
100
AcDbLine
10
140.635370
20
169.438039
30
0.0
11
139.572359
21
169.481028
31
0.0
0
LINE
8
Layer 1
62
4
5
1c7
100
AcDbEntity
100
AcDbLine
10
139.572359
20
169.481028
30
0.0
11
138.831954
21
169.649475
31
0.0
0
LINE
8
Layer 1
62
4
5
1c8
100
AcDbEntity
100
AcDbLine
10
138.831954
20
169.649475
30
0.0
11
138.329676
21
169.910529
31
0.0
0
LINE
8
Layer 1
62
4
5
1c9
100
AcDbEntity
100
AcDbLine
10
138.329676
20
169.910529
30
0.0
11
141.764777
21
173.135573
31
0.0
0
LINE
8
Layer 1
62
4
5
1ca
100
AcDbEntity
100
AcDbLine
10
141.764777
20
173.135573
30
0.0
11
143.334714
21
174.836663
31
0.0
0
LINE
8
Layer 1
62
4
5
1cb
100
AcDbEntity
100
AcDbLine
10
143.334714
20
174.836663
30
0.0
11
144.554626
21
176.747767
31
0.0
0
LINE
8
Layer 1
62
4
5
1cc
100
AcDbEntity
100
AcDbLine
10
144.554626
20
176.747767
30
0.0
11
143.322425
21
176.390683
31
0.0
0
LINE
8
Layer 1
62
4
5
1cd
100
AcDbEntity
100
AcDbLine
10
143.322425
20
176.390683
30
0.0
11
142.170903
21
176.235294
31
0.0
0
LINE
8
Layer 1
62
4
5
1ce
100
AcDbEntity
100
AcDbLine
10
142.170903
20
176.235294
30
0.0
11
141.126978
21
176.348898
31
0.0
0
LINE
8
Layer 1
62
4
5
1cf
100
AcDbEntity
100
AcDbLine
10
141.126978
20
176.348898
30
0.0
11
140.217570
21
176.798793
31
0.0
0
LINE
8
Layer 1
62
4
5
1d0
100
AcDbEntity
100
AcDbLine
10
140.217570
20
176.798793
30
0.0
11
140.600213
21
177.397546
31
0.0
0
LINE
8
Layer 1
62
4
5
1d1
100
AcDbEntity
100
AcDbLine
10
140.600213
20
177.397546
30
0.0
11
141.165800
21
177.974387
31
0.0
0
LINE
8
Layer 1
62
4
5
1d2
100
AcDbEntity
100
AcDbLine
10
141.165800
20
177.974387
30
0.0
11
142.669457
21
179.230522
31
0.0
0
LINE
8
Layer 1
62
4
5
1d3
100
AcDbEntity
100
AcDbLine
10
142.669457
20
179.230522
30
0.0
11
144.375848
21
180.903565
31
0.0
0
LINE
8
Layer 1
62
4
5
1d4
100
AcDbEntity
100
AcDbLine
10
144.375848
20
180.903565
30
0.0
11
145.194852
21
182.001544
31
0.0
0
LINE
8
Layer 1
62
4
5
1d5
100
AcDbEntity
100
AcDbLine
10
145.194852
20
182.001544
30
0.0
11
145.932279
21
183.329888
31
0.0
0
LINE
8
Layer 1
62
4
5
1d6
100
AcDbEntity
100
AcDbLine
10
145.932279
20
183.329888
30
0.0
11
143.392820
21
183.120287
31
0.0
0
LINE
8
Layer 1
62
4
5
1d7
100
AcDbEntity
100
AcDbLine
10
143.392820
20
183.120287
30
0.0
11
142.440515
21
183.142456
31
0.0
0
LINE
8
Layer 1
62
4
5
1d8
100
AcDbEntity
100
AcDbLine
10
142.440515
20
183.142456
30
0.0
11
141.901367
21
183.329888
31
0.0
0
LINE
8
Layer 1
62
4
5
1d9
100
AcDbEntity
100
AcDbLine
10
141.901367
20
183.329888
30
0.0
11
142.620531
21
185.594780
31
0.0
0
LINE
8
Layer 1
62
4
5
1da
100
AcDbEntity
100
AcDbLine
10
142.620531
20
185.594780
30
0.0
11
143.502474
21
187.452723
31
0.0
0
LINE
8
Layer 1
62
4
5
1db
100
AcDbEntity
100
AcDbLine
10
143.502474
20
187.452723
30
0.0
11
145.524085
21
190.524298
31
0.0
0
LINE
8
Layer 1
62
4
5
1dc
100
AcDbEntity
100
AcDbLine
10
145.524085
20
190.524298
30
0.0
11
139.359718
21
190.578163
31
0.0
0
LINE
8
Layer 1
62
4
5
1dd
100
AcDbEntity
100
AcDbLine
10
139.359718
20
190.578163
30
0.0
11
137.044969
21
190.655146
31
0.0
0
LINE
8
Layer 1
62
4
5
1de
100
AcDbEntity
100
AcDbLine
10
137.044969
20
190.655146
30
0.0
11
136.406213
21
190.727461
31
0.0
0
LINE
8
Layer 1
62
4
5
1df
100
AcDbEntity
100
AcDbLine
10
136.406213
20
190.727461
30
0.0
11
136.237684
21
190.830443
31
0.0
0
LINE
8
Layer 1
62
4
5
1e0
100
AcDbEntity
100
AcDbLine
10
136.237684
20
190.830443
30
0.0
11
138.584796
21
193.228579
31
0.0
0
LINE
8
Layer 1
62
4
5
1e1
100
AcDbEntity
100
AcDbLine
10
138.584796
20
193.228579
30
0.0
11
137.192557
21
193.506627
31
0.0
0
LINE
8
Layer 1
62
4
5
1e2
100
AcDbEntity
100
AcDbLine
10
137.192557
20
193.506627
30
0.0
11
135.805431
21
193.611238
31
0.0
0
LINE
8
Layer 1
62
4
5
1e3
100
AcDbEntity
100
AcDbLine
10
135.805431
20
193.611238
30
0.0
11
133.099297
21
193.415246
31
0.0
0
LINE
8
Layer 1
62
4
5
1e4
100
AcDbEntity
100
AcDbLine
10
133.099297
20
193.415246
30
0.0
11
130.571947
21
192.870800
31
0.0
0
LINE
8
Layer 1
62
4
5
1e5
100
AcDbEntity
100
AcDbLine
10
130.571947
20
192.870800
30
0.0
11
128.328936
21
192.208096
31
0.0
0
LINE
8
Layer 1
62
4
5
1e6
100
AcDbEntity
100
AcDbLine
10
128.328936
20
192.208096
30
0.0
11
127.977768
21
192.585680
31
0.0
0
LINE
8
Layer 1
62
4
5
1e7
100
AcDbEntity
100
AcDbLine
10
127.977768
20
192.585680
30
0.0
11
127.834219
21
192.984741
31
0.0
0
LINE
8
Layer 1
62
4
5
1e8
100
AcDbEntity
100
AcDbLine
10
127.834219
20
192.984741
30
0.0
11
127.871980
21
193.402559
31
0.0
0
LINE
8
Layer 1
62
4
5
1e9
100
AcDbEntity
100
AcDbLine
10
127.871980
20
193.402559
30
0.0
11
128.064743
21
193.836412
31
0.0
0
LINE
8
Layer 1
62
4
5
1ea
100
AcDbEntity
100
AcDbLine
10
128.064743
20
193.836412
30
0.0
11
128.810045
21
194.741336
31
0.0
0
LINE
8
Layer 1
62
4
5
1eb
100
AcDbEntity
100
AcDbLine
10
128.810045
20
194.741336
30
0.0
11
129.859662
21
195.677740
31
0.0
0
LINE
8
Layer 1
62
4
5
1ec
100
AcDbEntity
100
AcDbLine
10
129.859662
20
195.677740
30
0.0
11
125.357166
21
194.822696
31
0.0
0
LINE
8
Layer 1
62
4
5
1ed
100
AcDbEntity
100
AcDbLine
10
125.357166
20
194.822696
30
0.0
11
121.287599
21
193.534725
31
0.0
0
LINE
8
Layer 1
62
4
5
1ee
100
AcDbEntity
100
AcDbLine
10
121.287599
20
193.534725
30
0.0
11
120.933307
21
194.000320
31
0.0
0
LINE
8
Layer 1
62
4
5
1ef
100
AcDbEntity
100
AcDbLine
10
120.933307
20
194.000320
30
0.0
11
120.864141
21
194.465916
31
0.0
0
LINE
8
Layer 1
62
4
5
1f0
100
AcDbEntity
100
AcDbLine
10
120.864141
20
194.465916
30
0.0
11
121.023686
21
194.931512
31
0.0
0
LINE
8
Layer 1
62
4
5
1f1
100
AcDbEntity
100
AcDbLine
10
121.023686
20
194.931512
30
0.0
11
121.355527
21
195.397107
31
0.0
0
LINE
8
Layer 1
62
4
5
1f2
100
AcDbEntity
100
AcDbLine
10
121.355527
20
195.397107
30
0.0
11
123.277543
21
197.259490
31
0.0
0
LINE
8
Layer 1
62
4
5
1f3
100
AcDbEntity
100
AcDbLine
10
123.277543
20
197.259490
30
0.0
11
120.108862
21
196.502472
31
0.0
0
LINE
8
Layer 1
62
4
5
1f4
100
AcDbEntity
100
AcDbLine
10
120.108862
20
196.502472
30
0.0
11
117.730487
21
195.640079
31
0.0
0
LINE
8
Layer 1
62
4
5
1f5
100
AcDbEntity
100
AcDbLine
10
117.730487
20
195.640079
30
0.0
11
115.880576
21
194.707225
31
0.0
0
LINE
8
Layer 1
62
4
5
1f6
100
AcDbEntity
100
AcDbLine
10
115.880576
20
194.707225
30
0.0
11
114.297285
21
193.738821
31
0.0
0
LINE
8
Layer 1
62
4
5
1f7
100
AcDbEntity
100
AcDbLine
10
114.297285
20
193.738821
30
0.0
11
113.868619
21
194.263808
31
0.0
0
LINE
8
Layer 1
62
4
5
1f8
100
AcDbEntity
100
AcDbLine
10
113.868619
20
194.263808
30
0.0
11
113.672281
21
194.771585
31
0.0
0
LINE
8
Layer 1
62
4
5
1f9
100
AcDbEntity
100
AcDbLine
10
113.672281
20
194.771585
30
0.0
11
113.669748
21
195.265007
31
0.0
0
LINE
8
Layer 1
62
4
5
1fa
100
AcDbEntity
100
AcDbLine
10
113.669748
20
195.265007
30
0.0
11
113.822491
21
195.746926
31
0.0
0
LINE
8
Layer 1
62
4
5
1fb
100
AcDbEntity
100
AcDbLine
10
113.822491
20
195.746926
30
0.0
11
114.439706
21
196.687674
31
0.0
0
LINE
8
Layer 1
62
4
5
1fc
100
AcDbEntity
100
AcDbLine
10
114.439706
20
196.687674
30
0.0
11
115.215721
21
197.616659
31
0.0
0
LINE
8
Layer 1
62
4
5
1fd
100
AcDbEntity
100
AcDbLine
10
115.215721
20
197.616659
30
0.0
11
112.767208
21
196.529417
31
0.0
0
LINE
8
Layer 1
62
4
5
1fe
100
AcDbEntity
100
AcDbLine
10
112.767208
20
196.529417
30
0.0
11
110.809919
21
195.333014
31
0.0
0
LINE
8
Layer 1
62
4
5
1ff
100
AcDbEntity
100
AcDbLine
10
110.809919
20
195.333014
30
0.0
11
109.167636
21
194.066609
31
0.0
0
LINE
8
Layer 1
62
4
5
200
100
AcDbEntity
100
AcDbLine
10
109.167636
20
194.066609
30
0.0
11
107.664143
21
192.769362
31
0.0
0
LINE
8
Layer 1
62
4
5
201
100
AcDbEntity
100
AcDbLine
10
107.664143
20
192.769362
30
0.0
11
107.131167
21
193.434528
31
0.0
0
LINE
8
Layer 1
62
4
5
202
100
AcDbEntity
100
AcDbLine
10
107.131167
20
193.434528
30
0.0
11
106.710742
21
194.174728
31
0.0
0
LINE
8
Layer 1
62
4
5
203
100
AcDbEntity
100
AcDbLine
10
106.710742
20
194.174728
30
0.0
11
106.652212
21
195.156193
31
0.0
0
LINE
8
Layer 1
62
4
5
204
100
AcDbEntity
100
AcDbLine
10
106.652212
20
195.156193
30
0.0
11
107.204925
21
196.545151
31
0.0
0
LINE
8
Layer 1
62
4
5
205
100
AcDbEntity
100
AcDbLine
10
107.204925
20
196.545151
30
0.0
11
105.368896
21
195.369118
31
0.0
0
LINE
8
Layer 1
62
4
5
206
100
AcDbEntity
100
AcDbLine
10
105.368896
20
195.369118
30
0.0
11
103.761673
21
194.097749
31
0.0
0
LINE
8
Layer 1
62
4
5
207
100
AcDbEntity
100
AcDbLine
10
103.761673
20
194.097749
30
0.0
11
102.370862
21
192.736209
31
0.0
0
LINE
8
Layer 1
62
4
5
208
100
AcDbEntity
100
AcDbLine
10
102.370862
20
192.736209
30
0.0
11
101.184069
21
191.289661
31
0.0
0
LINE
8
Layer 1
62
4
5
209
100
AcDbEntity
100
AcDbLine
10
101.184069
20
191.289661
30
0.0
11
100.679828
21
191.691413
31
0.0
0
LINE
8
Layer 1
62
4
5
20a
100
AcDbEntity
100
AcDbLine
10
100.679828
20
191.691413
30
0.0
11
100.353584
21
192.122832
31
0.0
0
LINE
8
Layer 1
62
4
5
20b
100
AcDbEntity
100
AcDbLine
10
100.353584
20
192.122832
30
0.0
11
100.097980
21
193.051817
31
0.0
0
LINE
8
Layer 1
62
4
5
20c
100
AcDbEntity
100
AcDbLine
10
100.097980
20
193.051817
30
0.0
11
100.214611
21
195.014426
31
0.0
0
LINE
8
Layer 1
62
4
5
20d
100
AcDbEntity
100
AcDbLine
10
100.214611
20
195.014426
30
0.0
11
98.347388
21
193.338608
31
0.0
0
LINE
8
Layer 1
62
4
5
20e
100
AcDbEntity
100
AcDbLine
10
98.347388
20
193.338608
30
0.0
11
96.722384
21
191.628188
31
0.0
0
LINE
8
Layer 1
62
4
5
20f
100
AcDbEntity
100
AcDbLine
10
96.722384
20
191.628188
30
0.0
11
93.683514
21
188.177185
31
0.0
0
LINE
8
Layer 1
62
4
5
210
100
AcDbEntity
100
AcDbLine
10
93.683514
20
188.177185
30
0.0
11
93.375396
21
188.544978
31
0.0
0
LINE
8
Layer 1
62
4
5
211
100
AcDbEntity
100
AcDbLine
10
93.375396
20
188.544978
30
0.0
11
93.086178
21
189.177392
31
0.0
0
LINE
8
Layer 1
62
4
5
212
100
AcDbEntity
100
AcDbLine
10
93.086178
20
189.177392
30
0.0
11
92.560984
21
191.187612
31
0.0
0
LINE
8
Layer 1
62
4
5
213
100
AcDbEntity
100
AcDbLine
10
92.560984
20
191.187612
30
0.0
11
90.061717
21
188.427787
31
0.0
0
LINE
8
Layer 1
62
4
5
214
100
AcDbEntity
100
AcDbLine
10
90.061717
20
188.427787
30
0.0
11
87.605757
21
184.998637
31
0.0
0
LINE
8
Layer 1
62
4
5
215
100
AcDbEntity
100
AcDbLine
10
87.605757
20
184.998637
30
0.0
11
86.485726
21
183.102827
31
0.0
0
LINE
8
Layer 1
62
4
5
216
100
AcDbEntity
100
AcDbLine
10
86.485726
20
183.102827
30
0.0
11
85.486573
21
181.123400
31
0.0
0
LINE
8
Layer 1
62
4
5
217
100
AcDbEntity
100
AcDbLine
10
85.486573
20
181.123400
30
0.0
11
84.644983
21
179.088260
31
0.0
0
LINE
8
Layer 1
62
4
5
218
100
AcDbEntity
100
AcDbLine
10
84.644983
20
179.088260
30
0.0
11
83.997642
21
177.025312
31
0.0
0
LINE
8
Layer 1
62
4
5
219
100
AcDbEntity
100
AcDbLine
10
83.997642
20
177.025312
30
0.0
11
83.581229
21
174.962461
31
0.0
0
LINE
8
Layer 1
62
4
5
21a
100
AcDbEntity
100
AcDbLine
10
83.581229
20
174.962461
30
0.0
11
83.432433
21
172.927611
31
0.0
0
LINE
8
Layer 1
62
4
5
21b
100
AcDbEntity
100
AcDbLine
10
83.432433
20
172.927611
30
0.0
11
83.587934
21
170.948666
31
0.0
0
LINE
8
Layer 1
62
4
5
21c
100
AcDbEntity
100
AcDbLine
10
83.587934
20
170.948666
30
0.0
11
84.084420
21
169.053533
31
0.0
0
LINE
8
Layer 1
62
4
5
21d
100
AcDbEntity
100
AcDbLine
10
84.084420
20
169.053533
30
0.0
11
84.958572
21
167.270112
31
0.0
0
LINE
8
Layer 1
62
4
5
21e
100
AcDbEntity
100
AcDbLine
10
84.958572
20
167.270112
30
0.0
11
86.247074
21
165.626313
31
0.0
0
LINE
8
Layer 1
62
4
5
21f
100
AcDbEntity
100
AcDbLine
10
86.247074
20
165.626313
30
0.0
11
87.986614
21
164.150038
31
0.0
0
LINE
8
Layer 1
62
4
5
220
100
AcDbEntity
100
AcDbLine
10
87.986614
20
164.150038
30
0.0
11
90.213871
21
162.869191
31
0.0
0
LINE
8
Layer 1
62
4
5
221
100
AcDbEntity
100
AcDbLine
10
90.213871
20
162.869191
30
0.0
11
94.540070
21
166.238616
31
0.0
0
LINE
8
Layer 1
62
4
5
222
100
AcDbEntity
100
AcDbLine
10
94.540070
20
166.238616
30
0.0
11
99.063430
21
169.379749
31
0.0
0
LINE
8
Layer 1
62
4
5
223
100
AcDbEntity
100
AcDbLine
10
99.063430
20
169.379749
30
0.0
11
103.775303
21
172.302605
31
0.0
0
LINE
8
Layer 1
62
4
5
224
100
AcDbEntity
100
AcDbLine
10
103.775303
20
172.302605
30
0.0
11
108.667039
21
175.017197
31
0.0
0
LINE
8
Layer 1
62
4
5
225
100
AcDbEntity
100
AcDbLine
10
108.667039
20
175.017197
30
0.0
11
113.729991
21
177.533539
31
0.0
0
LINE
8
Layer 1
62
4
5
226
100
AcDbEntity
100
AcDbLine
10
113.729991
20
177.533539
30
0.0
11
118.955511
21
179.861645
31
0.0
0
LINE
8
Layer 1
62
4
5
227
100
AcDbEntity
100
AcDbLine
10
118.955511
20
179.861645
30
0.0
11
124.334951
21
182.011528
31
0.0
0
LINE
8
Layer 1
62
4
5
228
100
AcDbEntity
100
AcDbLine
10
124.334951
20
182.011528
30
0.0
11
129.859662
21
183.993202
31
0.0
0
LINE
8
Layer 1
62
4
5
229
100
AcDbEntity
100
AcDbLine
10
129.859662
20
183.993202
30
0.0
11
129.859662
21
183.993202
31
0.0
0
LINE
8
Layer 1
62
4
5
22a
100
AcDbEntity
100
AcDbLine
10
129.859662
20
183.993202
30
0.0
11
129.859662
21
183.993202
31
0.0
0
LINE
8
Layer 1
62
4
5
22b
100
AcDbEntity
100
AcDbLine
10
102.207946
20
56.342551
30
0.0
11
102.089354
21
54.176889
31
0.0
0
LINE
8
Layer 1
62
4
5
22c
100
AcDbEntity
100
AcDbLine
10
102.089354
20
54.176889
30
0.0
11
101.741276
21
52.073786
31
0.0
0
LINE
8
Layer 1
62
4
5
22d
100
AcDbEntity
100
AcDbLine
10
101.741276
20
52.073786
30
0.0
11
101.175256
21
50.043889
31
0.0
0
LINE
8
Layer 1
62
4
5
22e
100
AcDbEntity
100
AcDbLine
10
101.175256
20
50.043889
30
0.0
11
100.402842
21
48.097844
31
0.0
0
LINE
8
Layer 1
62
4
5
22f
100
AcDbEntity
100
AcDbLine
10
100.402842
20
48.097844
30
0.0
11
99.435579
21
46.246298
31
0.0
0
LINE
8
Layer 1
62
4
5
230
100
AcDbEntity
100
AcDbLine
10
99.435579
20
46.246298
30
0.0
11
98.285014
21
44.499899
31
0.0
0
LINE
8
Layer 1
62
4
5
231
100
AcDbEntity
100
AcDbLine
10
98.285014
20
44.499899
30
0.0
11
96.962691
21
42.869293
31
0.0
0
LINE
8
Layer 1
62
4
5
232
100
AcDbEntity
100
AcDbLine
10
96.962691
20
42.869293
30
0.0
11
95.480158
21
41.365128
31
0.0
0
LINE
8
Layer 1
62
4
5
233
100
AcDbEntity
100
AcDbLine
10
95.480158
20
41.365128
30
0.0
11
93.848962
21
39.998049
31
0.0
0
LINE
8
Layer 1
62
4
5
234
100
AcDbEntity
100
AcDbLine
10
93.848962
20
39.998049
30
0.0
11
92.080648
21
38.778706
31
0.0
0
LINE
8
Layer 1
62
4
5
235
100
AcDbEntity
100
AcDbLine
10
92.080648
20
38.778706
30
0.0
11
90.186760
21
37.717742
31
0.0
0
LINE
8
Layer 1
62
4
5
236
100
AcDbEntity
100
AcDbLine
10
90.186760
20
37.717742
30
0.0
11
88.178846
21
36.825806
31
0.0
0
LINE
8
Layer 1
62
4
5
237
100
AcDbEntity
100
AcDbLine
10
88.178846
20
36.825806
30
0.0
11
86.068451
21
36.113544
31
0.0
0
LINE
8
Layer 1
62
4
5
238
100
AcDbEntity
100
AcDbLine
10
86.068451
20
36.113544
30
0.0
11
83.867122
21
35.591604
31
0.0
0
LINE
8
Layer 1
62
4
5
239
100
AcDbEntity
100
AcDbLine
10
83.867122
20
35.591604
30
0.0
11
81.586405
21
35.270633
31
0.0
0
LINE
8
Layer 1
62
4
5
23a
100
AcDbEntity
100
AcDbLine
10
81.586405
20
35.270633
30
0.0
11
79.237846
21
35.161276
31
0.0
0
LINE
8
Layer 1
62
4
5
23b
100
AcDbEntity
100
AcDbLine
10
79.237846
20
35.161276
30
0.0
11
76.889287
21
35.270633
31
0.0
0
LINE
8
Layer 1
62
4
5
23c
100
AcDbEntity
100
AcDbLine
10
76.889287
20
35.270633
30
0.0
11
74.608570
21
35.591604
31
0.0
0
LINE
8
Layer 1
62
4
5
23d
100
AcDbEntity
100
AcDbLine
10
74.608570
20
35.591604
30
0.0
11
72.407242
21
36.113544
31
0.0
0
LINE
8
Layer 1
62
4
5
23e
100
AcDbEntity
100
AcDbLine
10
72.407242
20
36.113544
30
0.0
11
70.296848
21
36.825806
31
0.0
0
LINE
8
Layer 1
62
4
5
23f
100
AcDbEntity
100
AcDbLine
10
70.296848
20
36.825806
30
0.0
11
68.288934
21
37.717742
31
0.0
0
LINE
8
Layer 1
62
4
5
240
100
AcDbEntity
100
AcDbLine
10
68.288934
20
37.717742
30
0.0
11
66.395046
21
38.778706
31
0.0
0
LINE
8
Layer 1
62
4
5
241
100
AcDbEntity
100
AcDbLine
10
66.395046
20
38.778706
30
0.0
11
64.626731
21
39.998049
31
0.0
0
LINE
8
Layer 1
62
4
5
242
100
AcDbEntity
100
AcDbLine
10
64.626731
20
39.998049
30
0.0
11
62.995533
21
41.365128
31
0.0
0
LINE
8
Layer 1
62
4
5
243
100
AcDbEntity
100
AcDbLine
10
62.995533
20
41.365128
30
0.0
11
61.513002
21
42.869293
31
0.0
0
LINE
8
Layer 1
62
4
5
244
100
AcDbEntity
100
AcDbLine
10
61.513002
20
42.869293
30
0.0
11
60.190680
21
44.499899
31
0.0
0
LINE
8
Layer 1
62
4
5
245
100
AcDbEntity
100
AcDbLine
10
60.190680
20
44.499899
30
0.0
11
59.040115
21
46.246298
31
0.0
0
LINE
8
Layer 1
62
4
5
246
100
AcDbEntity
100
AcDbLine
10
59.040115
20
46.246298
30
0.0
11
58.072853
21
48.097844
31
0.0
0
LINE
8
Layer 1
62
4
5
247
100
AcDbEntity
100
AcDbLine
10
58.072853
20
48.097844
30
0.0
11
57.300439
21
50.043889
31
0.0
0
LINE
8
Layer 1
62
4
5
248
100
AcDbEntity
100
AcDbLine
10
57.300439
20
50.043889
30
0.0
11
56.734419
21
52.073786
31
0.0
0
LINE
8
Layer 1
62
4
5
249
100
AcDbEntity
100
AcDbLine
10
56.734419
20
52.073786
30
0.0
11
56.386340
21
54.176889
31
0.0
0
LINE
8
Layer 1
62
4
5
24a
100
AcDbEntity
100
AcDbLine
10
56.386340
20
54.176889
30
0.0
11
56.267748
21
56.342551
31
0.0
0
LINE
8
Layer 1
62
4
5
24b
100
AcDbEntity
100
AcDbLine
10
56.267748
20
56.342551
30
0.0
11
56.386340
21
58.508212
31
0.0
0
LINE
8
Layer 1
62
4
5
24c
100
AcDbEntity
100
AcDbLine
10
56.386340
20
58.508212
30
0.0
11
56.734419
21
60.611316
31
0.0
0
LINE
8
Layer 1
62
4
5
24d
100
AcDbEntity
100
AcDbLine
10
56.734419
20
60.611316
30
0.0
11
57.300439
21
62.641213
31
0.0
0
LINE
8
Layer 1
62
4
5
24e
100
AcDbEntity
100
AcDbLine
10
57.300439
20
62.641213
30
0.0
11
58.072853
21
64.587258
31
0.0
0
LINE
8
Layer 1
62
4
5
24f
100
AcDbEntity
100
AcDbLine
10
58.072853
20
64.587258
30
0.0
11
59.040115
21
66.438804
31
0.0
0
LINE
8
Layer 1
62
4
5
250
100
AcDbEntity
100
AcDbLine
10
59.040115
20
66.438804
30
0.0
11
60.190680
21
68.185203
31
0.0
0
LINE
8
Layer 1
62
4
5
251
100
AcDbEntity
100
AcDbLine
10
60.190680
20
68.185203
30
0.0
11
61.513002
21
69.815809
31
0.0
0
LINE
8
Layer 1
62
4
5
252
100
AcDbEntity
100
AcDbLine
10
61.513002
20
69.815809
30
0.0
11
62.995533
21
71.319974
31
0.0
0
LINE
8
Layer 1
62
4
5
253
100
AcDbEntity
100
AcDbLine
10
62.995533
20
71.319974
30
0.0
11
64.626731
21
72.687052
31
0.0
0
LINE
8
Layer 1
62
4
5
254
100
AcDbEntity
100
AcDbLine
10
64.626731
20
72.687052
30
0.0
11
66.395046
21
73.906396
31
0.0
0
LINE
8
Layer 1
62
4
5
255
100
AcDbEntity
100
AcDbLine
10
66.395046
20
73.906396
30
0.0
11
68.288934
21
74.967359
31
0.0
0
LINE
8
Layer 1
62
4
5
256
100
AcDbEntity
100
AcDbLine
10
68.288934
20
74.967359
30
0.0
11
70.296848
21
75.859296
31
0.0
0
LINE
8
Layer 1
62
4
5
257
100
AcDbEntity
100
AcDbLine
10
70.296848
20
75.859296
30
0.0
11
72.407242
21
76.571558
31
0.0
0
LINE
8
Layer 1
62
4
5
258
100
AcDbEntity
100
AcDbLine
10
72.407242
20
76.571558
30
0.0
11
74.608570
21
77.093498
31
0.0
0
LINE
8
Layer 1
62
4
5
259
100
AcDbEntity
100
AcDbLine
10
74.608570
20
77.093498
30
0.0
11
76.889287
21
77.414469
31
0.0
0
LINE
8
Layer 1
62
4
5
25a
100
AcDbEntity
100
AcDbLine
10
76.889287
20
77.414469
30
0.0
11
79.237846
21
77.523825
31
0.0
0
LINE
8
Layer 1
62
4
5
25b
100
AcDbEntity
100
AcDbLine
10
79.237846
20
77.523825
30
0.0
11
81.586405
21
77.414469
31
0.0
0
LINE
8
Layer 1
62
4
5
25c
100
AcDbEntity
100
AcDbLine
10
81.586405
20
77.414469
30
0.0
11
83.867122
21
77.093498
31
0.0
0
LINE
8
Layer 1
62
4
5
25d
100
AcDbEntity
100
AcDbLine
10
83.867122
20
77.093498
30
0.0
11
86.068451
21
76.571558
31
0.0
0
LINE
8
Layer 1
62
4
5
25e
100
AcDbEntity
100
AcDbLine
10
86.068451
20
76.571558
30
0.0
11
88.178846
21
75.859296
31
0.0
0
LINE
8
Layer 1
62
4
5
25f
100
AcDbEntity
100
AcDbLine
10
88.178846
20
75.859296
30
0.0
11
90.186760
21
74.967359
31
0.0
0
LINE
8
Layer 1
62
4
5
260
100
AcDbEntity
100
AcDbLine
10
90.186760
20
74.967359
30
0.0
11
92.080648
21
73.906396
31
0.0
0
LINE
8
Layer 1
62
4
5
261
100
AcDbEntity
100
AcDbLine
10
92.080648
20
73.906396
30
0.0
11
93.848962
21
72.687052
31
0.0
0
LINE
8
Layer 1
62
4
5
262
100
AcDbEntity
100
AcDbLine
10
93.848962
20
72.687052
30
0.0
11
95.480158
21
71.319974
31
0.0
0
LINE
8
Layer 1
62
4
5
263
100
AcDbEntity
100
AcDbLine
10
95.480158
20
71.319974
30
0.0
11
96.962691
21
69.815809
31
0.0
0
LINE
8
Layer 1
62
4
5
264
100
AcDbEntity
100
AcDbLine
10
96.962691
20
69.815809
30
0.0
11
98.285014
21
68.185203
31
0.0
0
LINE
8
Layer 1
62
4
5
265
100
AcDbEntity
100
AcDbLine
10
98.285014
20
68.185203
30
0.0
11
99.435579
21
66.438804
31
0.0
0
LINE
8
Layer 1
62
4
5
266
100
AcDbEntity
100
AcDbLine
10
99.435579
20
66.438804
30
0.0
11
100.402842
21
64.587258
31
0.0
0
LINE
8
Layer 1
62
4
5
267
100
AcDbEntity
100
AcDbLine
10
100.402842
20
64.587258
30
0.0
11
101.175256
21
62.641213
31
0.0
0
LINE
8
Layer 1
62
4
5
268
100
AcDbEntity
100
AcDbLine
10
101.175256
20
62.641213
30
0.0
11
101.741276
21
60.611316
31
0.0
0
LINE
8
Layer 1
62
4
5
269
100
AcDbEntity
100
AcDbLine
10
101.741276
20
60.611316
30
0.0
11
102.089354
21
58.508212
31
0.0
0
LINE
8
Layer 1
62
4
5
26a
100
AcDbEntity
100
AcDbLine
10
102.089354
20
58.508212
30
0.0
11
102.207946
21
56.342551
31
0.0
0
LINE
8
Layer 1
62
4
5
26b
100
AcDbEntity
100
AcDbLine
10
102.207946
20
56.342551
30
0.0
11
102.207946
21
56.342551
31
0.0
0
LINE
8
Layer 1
62
4
5
26c
100
AcDbEntity
100
AcDbLine
10
65.944555
20
116.850606
30
0.0
11
67.637364
21
115.591508
31
0.0
0
LINE
8
Layer 1
62
4
5
26d
100
AcDbEntity
100
AcDbLine
10
67.637364
20
115.591508
30
0.0
11
69.145390
21
114.163153
31
0.0
0
LINE
8
Layer 1
62
4
5
26e
100
AcDbEntity
100
AcDbLine
10
69.145390
20
114.163153
30
0.0
11
70.466706
21
112.581408
31
0.0
0
LINE
8
Layer 1
62
4
5
26f
100
AcDbEntity
100
AcDbLine
10
70.466706
20
112.581408
30
0.0
11
71.599385
21
110.862144
31
0.0
0
LINE
8
Layer 1
62
4
5
270
100
AcDbEntity
100
AcDbLine
10
71.599385
20
110.862144
30
0.0
11
72.541502
21
109.021226
31
0.0
0
LINE
8
Layer 1
62
4
5
271
100
AcDbEntity
100
AcDbLine
10
72.541502
20
109.021226
30
0.0
11
73.291131
21
107.074526
31
0.0
0
LINE
8
Layer 1
62
4
5
272
100
AcDbEntity
100
AcDbLine
10
73.291131
20
107.074526
30
0.0
11
73.846344
21
105.037912
31
0.0
0
LINE
8
Layer 1
62
4
5
273
100
AcDbEntity
100
AcDbLine
10
73.846344
20
105.037912
30
0.0
11
74.205217
21
102.927254
31
0.0
0
LINE
8
Layer 1
62
4
5
274
100
AcDbEntity
100
AcDbLine
10
74.205217
20
102.927254
30
0.0
11
74.365822
21
100.758419
31
0.0
0
LINE
8
Layer 1
62
4
5
275
100
AcDbEntity
100
AcDbLine
10
74.365822
20
100.758419
30
0.0
11
74.326234
21
98.547276
31
0.0
0
LINE
8
Layer 1
62
4
5
276
100
AcDbEntity
100
AcDbLine
10
74.326234
20
98.547276
30
0.0
11
74.084526
21
96.309694
31
0.0
0
LINE
8
Layer 1
62
4
5
277
100
AcDbEntity
100
AcDbLine
10
74.084526
20
96.309694
30
0.0
11
73.638771
21
94.061542
31
0.0
0
LINE
8
Layer 1
62
4
5
278
100
AcDbEntity
100
AcDbLine
10
73.638771
20
94.061542
30
0.0
11
72.987044
21
91.818691
31
0.0
0
LINE
8
Layer 1
62
4
5
279
100
AcDbEntity
100
AcDbLine
10
72.987044
20
91.818691
30
0.0
11
72.127418
21
89.597006
31
0.0
0
LINE
8
Layer 1
62
4
5
27a
100
AcDbEntity
100
AcDbLine
10
72.127418
20
89.597006
30
0.0
11
71.057966
21
87.412358
31
0.0
0
LINE
8
Layer 1
62
4
5
27b
100
AcDbEntity
100
AcDbLine
10
71.057966
20
87.412358
30
0.0
11
69.776763
21
85.280616
31
0.0
0
LINE
8
Layer 1
62
4
5
27c
100
AcDbEntity
100
AcDbLine
10
69.776763
20
85.280616
30
0.0
11
68.317614
21
83.265458
31
0.0
0
LINE
8
Layer 1
62
4
5
27d
100
AcDbEntity
100
AcDbLine
10
68.317614
20
83.265458
30
0.0
11
66.725874
21
81.422995
31
0.0
0
LINE
8
Layer 1
62
4
5
27e
100
AcDbEntity
100
AcDbLine
10
66.725874
20
81.422995
30
0.0
11
65.016940
21
79.757747
31
0.0
0
LINE
8
Layer 1
62
4
5
27f
100
AcDbEntity
100
AcDbLine
10
65.016940
20
79.757747
30
0.0
11
63.206212
21
78.274232
31
0.0
0
LINE
8
Layer 1
62
4
5
280
100
AcDbEntity
100
AcDbLine
10
63.206212
20
78.274232
30
0.0
11
61.309087
21
76.976965
31
0.0
0
LINE
8
Layer 1
62
4
5
281
100
AcDbEntity
100
AcDbLine
10
61.309087
20
76.976965
30
0.0
11
59.340964
21
75.870469
31
0.0
0
LINE
8
Layer 1
62
4
5
282
100
AcDbEntity
100
AcDbLine
10
59.340964
20
75.870469
30
0.0
11
57.317243
21
74.959259
31
0.0
0
LINE
8
Layer 1
62
4
5
283
100
AcDbEntity
100
AcDbLine
10
57.317243
20
74.959259
30
0.0
11
55.253320
21
74.247855
31
0.0
0
LINE
8
Layer 1
62
4
5
284
100
AcDbEntity
100
AcDbLine
10
55.253320
20
74.247855
30
0.0
11
53.164594
21
73.740776
31
0.0
0
LINE
8
Layer 1
62
4
5
285
100
AcDbEntity
100
AcDbLine
10
53.164594
20
73.740776
30
0.0
11
51.066465
21
73.442538
31
0.0
0
LINE
8
Layer 1
62
4
5
286
100
AcDbEntity
100
AcDbLine
10
51.066465
20
73.442538
30
0.0
11
48.974330
21
73.357660
31
0.0
0
LINE
8
Layer 1
62
4
5
287
100
AcDbEntity
100
AcDbLine
10
48.974330
20
73.357660
30
0.0
11
46.903589
21
73.490661
31
0.0
0
LINE
8
Layer 1
62
4
5
288
100
AcDbEntity
100
AcDbLine
10
46.903589
20
73.490661
30
0.0
11
44.869639
21
73.846058
31
0.0
0
LINE
8
Layer 1
62
4
5
289
100
AcDbEntity
100
AcDbLine
10
44.869639
20
73.846058
30
0.0
11
42.887878
21
74.428370
31
0.0
0
LINE
8
Layer 1
62
4
5
28a
100
AcDbEntity
100
AcDbLine
10
42.887878
20
74.428370
30
0.0
11
40.973706
21
75.242116
31
0.0
0
LINE
8
Layer 1
62
4
5
28b
100
AcDbEntity
100
AcDbLine
10
40.973706
20
75.242116
30
0.0
11
39.142520
21
76.291813
31
0.0
0
LINE
8
Layer 1
62
4
5
28c
100
AcDbEntity
100
AcDbLine
10
39.142520
20
76.291813
30
0.0
11
37.449711
21
77.550910
31
0.0
0
LINE
8
Layer 1
62
4
5
28d
100
AcDbEntity
100
AcDbLine
10
37.449711
20
77.550910
30
0.0
11
35.941685
21
78.979266
31
0.0
0
LINE
8
Layer 1
62
4
5
28e
100
AcDbEntity
100
AcDbLine
10
35.941685
20
78.979266
30
0.0
11
34.620370
21
80.561010
31
0.0
0
LINE
8
Layer 1
62
4
5
28f
100
AcDbEntity
100
AcDbLine
10
34.620370
20
80.561010
30
0.0
11
33.487690
21
82.280275
31
0.0
0
LINE
8
Layer 1
62
4
5
290
100
AcDbEntity
100
AcDbLine
10
33.487690
20
82.280275
30
0.0
11
32.545573
21
84.121192
31
0.0
0
LINE
8
Layer 1
62
4
5
291
100
AcDbEntity
100
AcDbLine
10
32.545573
20
84.121192
30
0.0
11
31.795944
21
86.067892
31
0.0
0
LINE
8
Layer 1
62
4
5
292
100
AcDbEntity
100
AcDbLine
10
31.795944
20
86.067892
30
0.0
11
31.240730
21
88.104505
31
0.0
0
LINE
8
Layer 1
62
4
5
293
100
AcDbEntity
100
AcDbLine
10
31.240730
20
88.104505
30
0.0
11
30.881859
21
90.215164
31
0.0
0
LINE
8
Layer 1
62
4
5
294
100
AcDbEntity
100
AcDbLine
10
30.881859
20
90.215164
30
0.0
11
30.721254
21
92.383998
31
0.0
0
LINE
8
Layer 1
62
4
5
295
100
AcDbEntity
100
AcDbLine
10
30.721254
20
92.383998
30
0.0
11
30.760842
21
94.595141
31
0.0
0
LINE
8
Layer 1
62
4
5
296
100
AcDbEntity
100
AcDbLine
10
30.760842
20
94.595141
30
0.0
11
31.002550
21
96.832722
31
0.0
0
LINE
8
Layer 1
62
4
5
297
100
AcDbEntity
100
AcDbLine
10
31.002550
20
96.832722
30
0.0
11
31.448304
21
99.080873
31
0.0
0
LINE
8
Layer 1
62
4
5
298
100
AcDbEntity
100
AcDbLine
10
31.448304
20
99.080873
30
0.0
11
32.100032
21
101.323725
31
0.0
0
LINE
8
Layer 1
62
4
5
299
100
AcDbEntity
100
AcDbLine
10
32.100032
20
101.323725
30
0.0
11
32.959658
21
103.545409
31
0.0
0
LINE
8
Layer 1
62
4
5
29a
100
AcDbEntity
100
AcDbLine
10
32.959658
20
103.545409
30
0.0
11
34.029110
21
105.730057
31
0.0
0
LINE
8
Layer 1
62
4
5
29b
100
AcDbEntity
100
AcDbLine
10
34.029110
20
105.730057
30
0.0
11
35.310312
21
107.861800
31
0.0
0
LINE
8
Layer 1
62
4
5
29c
100
AcDbEntity
100
AcDbLine
10
35.310312
20
107.861800
30
0.0
11
36.769461
21
109.876958
31
0.0
0
LINE
8
Layer 1
62
4
5
29d
100
AcDbEntity
100
AcDbLine
10
36.769461
20
109.876958
30
0.0
11
38.361202
21
111.719421
31
0.0
0
LINE
8
Layer 1
62
4
5
29e
100
AcDbEntity
100
AcDbLine
10
38.361202
20
111.719421
30
0.0
11
40.070137
21
113.384670
31
0.0
0
LINE
8
Layer 1
62
4
5
29f
100
AcDbEntity
100
AcDbLine
10
40.070137
20
113.384670
30
0.0
11
41.880866
21
114.868187
31
0.0
0
LINE
8
Layer 1
62
4
5
2a0
100
AcDbEntity
100
AcDbLine
10
41.880866
20
114.868187
30
0.0
11
43.777990
21
116.165452
31
0.0
0
LINE
8
Layer 1
62
4
5
2a1
100
AcDbEntity
100
AcDbLine
10
43.777990
20
116.165452
30
0.0
11
45.746112
21
117.271949
31
0.0
0
LINE
8
Layer 1
62
4
5
2a2
100
AcDbEntity
100
AcDbLine
10
45.746112
20
117.271949
30
0.0
11
47.769833
21
118.183158
31
0.0
0
LINE
8
Layer 1
62
4
5
2a3
100
AcDbEntity
100
AcDbLine
10
47.769833
20
118.183158
30
0.0
11
49.833756
21
118.894561
31
0.0
0
LINE
8
Layer 1
62
4
5
2a4
100
AcDbEntity
100
AcDbLine
10
49.833756
20
118.894561
30
0.0
11
51.922481
21
119.401642
31
0.0
0
LINE
8
Layer 1
62
4
5
2a5
100
AcDbEntity
100
AcDbLine
10
51.922481
20
119.401642
30
0.0
11
54.020611
21
119.699880
31
0.0
0
LINE
8
Layer 1
62
4
5
2a6
100
AcDbEntity
100
AcDbLine
10
54.020611
20
119.699880
30
0.0
11
56.112746
21
119.784758
31
0.0
0
LINE
8
Layer 1
62
4
5
2a7
100
AcDbEntity
100
AcDbLine
10
56.112746
20
119.784758
30
0.0
11
58.183486
21
119.651757
31
0.0
0
LINE
8
Layer 1
62
4
5
2a8
100
AcDbEntity
100
AcDbLine
10
58.183486
20
119.651757
30
0.0
11
60.217437
21
119.296360
31
0.0
0
LINE
8
Layer 1
62
4
5
2a9
100
AcDbEntity
100
AcDbLine
10
60.217437
20
119.296360
30
0.0
11
62.199198
21
118.714048
31
0.0
0
LINE
8
Layer 1
62
4
5
2aa
100
AcDbEntity
100
AcDbLine
10
62.199198
20
118.714048
30
0.0
11
64.113370
21
117.900303
31
0.0
0
LINE
8
Layer 1
62
4
5
2ab
100
AcDbEntity
100
AcDbLine
10
64.113370
20
117.900303
30
0.0
11
65.944555
21
116.850606
31
0.0
0
LINE
8
Layer 1
62
4
5
2ac
100
AcDbEntity
100
AcDbLine
10
65.944555
20
116.850606
30
0.0
11
65.944555
21
116.850606
31
0.0
0
LINE
8
Layer 1
62
4
5
2ad
100
AcDbEntity
100
AcDbLine
10
91.635859
20
117.979495
30
0.0
11
89.943050
21
116.720397
31
0.0
0
LINE
8
Layer 1
62
4
5
2ae
100
AcDbEntity
100
AcDbLine
10
89.943050
20
116.720397
30
0.0
11
88.435024
21
115.292042
31
0.0
0
LINE
8
Layer 1
62
4
5
2af
100
AcDbEntity
100
AcDbLine
10
88.435024
20
115.292042
30
0.0
11
87.113708
21
113.710297
31
0.0
0
LINE
8
Layer 1
62
4
5
2b0
100
AcDbEntity
100
AcDbLine
10
87.113708
20
113.710297
30
0.0
11
85.981029
21
111.991033
31
0.0
0
LINE
8
Layer 1
62
4
5
2b1
100
AcDbEntity
100
AcDbLine
10
85.981029
20
111.991033
30
0.0
11
85.038911
21
110.150115
31
0.0
0
LINE
8
Layer 1
62
4
5
2b2
100
AcDbEntity
100
AcDbLine
10
85.038911
20
110.150115
30
0.0
11
84.289282
21
108.203415
31
0.0
0
LINE
8
Layer 1
62
4
5
2b3
100
AcDbEntity
100
AcDbLine
10
84.289282
20
108.203415
30
0.0
11
83.734068
21
106.166801
31
0.0
0
LINE
8
Layer 1
62
4
5
2b4
100
AcDbEntity
100
AcDbLine
10
83.734068
20
106.166801
30
0.0
11
83.375195
21
104.056143
31
0.0
0
LINE
8
Layer 1
62
4
5
2b5
100
AcDbEntity
100
AcDbLine
10
83.375195
20
104.056143
30
0.0
11
83.214590
21
101.887308
31
0.0
0
LINE
8
Layer 1
62
4
5
2b6
100
AcDbEntity
100
AcDbLine
10
83.214590
20
101.887308
30
0.0
11
83.254178
21
99.676165
31
0.0
0
LINE
8
Layer 1
62
4
5
2b7
100
AcDbEntity
100
AcDbLine
10
83.254178
20
99.676165
30
0.0
11
83.495887
21
97.438583
31
0.0
0
LINE
8
Layer 1
62
4
5
2b8
100
AcDbEntity
100
AcDbLine
10
83.495887
20
97.438583
30
0.0
11
83.941643
21
95.190431
31
0.0
0
LINE
8
Layer 1
62
4
5
2b9
100
AcDbEntity
100
AcDbLine
10
83.941643
20
95.190431
30
0.0
11
84.593371
21
92.947580
31
0.0
0
LINE
8
Layer 1
62
4
5
2ba
100
AcDbEntity
100
AcDbLine
10
84.593371
20
92.947580
30
0.0
11
85.452997
21
90.725895
31
0.0
0
LINE
8
Layer 1
62
4
5
2bb
100
AcDbEntity
100
AcDbLine
10
85.452997
20
90.725895
30
0.0
11
86.522449
21
88.541247
31
0.0
0
LINE
8
Layer 1
62
4
5
2bc
100
AcDbEntity
100
AcDbLine
10
86.522449
20
88.541247
30
0.0
11
87.803651
21
86.409505
31
0.0
0
LINE
8
Layer 1
62
4
5
2bd
100
AcDbEntity
100
AcDbLine
10
87.803651
20
86.409505
30
0.0
11
89.262800
21
84.394346
31
0.0
0
LINE
8
Layer 1
62
4
5
2be
100
AcDbEntity
100
AcDbLine
10
89.262800
20
84.394346
30
0.0
11
90.854541
21
82.551884
31
0.0
0
LINE
8
Layer 1
62
4
5
2bf
100
AcDbEntity
100
AcDbLine
10
90.854541
20
82.551884
30
0.0
11
92.563476
21
80.886636
31
0.0
0
LINE
8
Layer 1
62
4
5
2c0
100
AcDbEntity
100
AcDbLine
10
92.563476
20
80.886636
30
0.0
11
94.374205
21
79.403121
31
0.0
0
LINE
8
Layer 1
62
4
5
2c1
100
AcDbEntity
100
AcDbLine
10
94.374205
20
79.403121
30
0.0
11
96.271329
21
78.105855
31
0.0
0
LINE
8
Layer 1
62
4
5
2c2
100
AcDbEntity
100
AcDbLine
10
96.271329
20
78.105855
30
0.0
11
98.239451
21
76.999359
31
0.0
0
LINE
8
Layer 1
62
4
5
2c3
100
AcDbEntity
100
AcDbLine
10
98.239451
20
76.999359
30
0.0
11
100.263172
21
76.088150
31
0.0
0
LINE
8
Layer 1
62
4
5
2c4
100
AcDbEntity
100
AcDbLine
10
100.263172
20
76.088150
30
0.0
11
102.327095
21
75.376746
31
0.0
0
LINE
8
Layer 1
62
4
5
2c5
100
AcDbEntity
100
AcDbLine
10
102.327095
20
75.376746
30
0.0
11
104.415820
21
74.869666
31
0.0
0
LINE
8
Layer 1
62
4
5
2c6
100
AcDbEntity
100
AcDbLine
10
104.415820
20
74.869666
30
0.0
11
106.513950
21
74.571427
31
0.0
0
LINE
8
Layer 1
62
4
5
2c7
100
AcDbEntity
100
AcDbLine
10
106.513950
20
74.571427
30
0.0
11
108.606085
21
74.486549
31
0.0
0
LINE
8
Layer 1
62
4
5
2c8
100
AcDbEntity
100
AcDbLine
10
108.606085
20
74.486549
30
0.0
11
110.676825
21
74.619550
31
0.0
0
LINE
8
Layer 1
62
4
5
2c9
100
AcDbEntity
100
AcDbLine
10
110.676825
20
74.619550
30
0.0
11
112.710776
21
74.974947
31
0.0
0
LINE
8
Layer 1
62
4
5
2ca
100
AcDbEntity
100
AcDbLine
10
112.710776
20
74.974947
30
0.0
11
114.692537
21
75.557259
31
0.0
0
LINE
8
Layer 1
62
4
5
2cb
100
AcDbEntity
100
AcDbLine
10
114.692537
20
75.557259
30
0.0
11
116.606709
21
76.371005
31
0.0
0
LINE
8
Layer 1
62
4
5
2cc
100
AcDbEntity
100
AcDbLine
10
116.606709
20
76.371005
30
0.0
11
118.437894
21
77.420701
31
0.0
0
LINE
8
Layer 1
62
4
5
2cd
100
AcDbEntity
100
AcDbLine
10
118.437894
20
77.420701
30
0.0
11
120.130704
21
78.679799
31
0.0
0
LINE
8
Layer 1
62
4
5
2ce
100
AcDbEntity
100
AcDbLine
10
120.130704
20
78.679799
30
0.0
11
121.638730
21
80.108154
31
0.0
0
LINE
8
Layer 1
62
4
5
2cf
100
AcDbEntity
100
AcDbLine
10
121.638730
20
80.108154
30
0.0
11
122.960045
21
81.689899
31
0.0
0
LINE
8
Layer 1
62
4
5
2d0
100
AcDbEntity
100
AcDbLine
10
122.960045
20
81.689899
30
0.0
11
124.092724
21
83.409163
31
0.0
0
LINE
8
Layer 1
62
4
5
2d1
100
AcDbEntity
100
AcDbLine
10
124.092724
20
83.409163
30
0.0
11
125.034842
21
85.250081
31
0.0
0
LINE
8
Layer 1
62
4
5
2d2
100
AcDbEntity
100
AcDbLine
10
125.034842
20
85.250081
30
0.0
11
125.784471
21
87.196780
31
0.0
0
LINE
8
Layer 1
62
4
5
2d3
100
AcDbEntity
100
AcDbLine
10
125.784471
20
87.196780
30
0.0
11
126.339685
21
89.233394
31
0.0
0
LINE
8
Layer 1
62
4
5
2d4
100
AcDbEntity
100
AcDbLine
10
126.339685
20
89.233394
30
0.0
11
126.698558
21
91.344053
31
0.0
0
LINE
8
Layer 1
62
4
5
2d5
100
AcDbEntity
100
AcDbLine
10
126.698558
20
91.344053
30
0.0
11
126.859162
21
93.512887
31
0.0
0
LINE
8
Layer 1
62
4
5
2d6
100
AcDbEntity
100
AcDbLine
10
126.859162
20
93.512887
30
0.0
11
126.819573
21
95.724030
31
0.0
0
LINE
8
Layer 1
62
4
5
2d7
100
AcDbEntity
100
AcDbLine
10
126.819573
20
95.724030
30
0.0
11
126.577865
21
97.961611
31
0.0
0
LINE
8
Layer 1
62
4
5
2d8
100
AcDbEntity
100
AcDbLine
10
126.577865
20
97.961611
30
0.0
11
126.132110
21
100.209762
31
0.0
0
LINE
8
Layer 1
62
4
5
2d9
100
AcDbEntity
100
AcDbLine
10
126.132110
20
100.209762
30
0.0
11
125.480383
21
102.452614
31
0.0
0
LINE
8
Layer 1
62
4
5
2da
100
AcDbEntity
100
AcDbLine
10
125.480383
20
102.452614
30
0.0
11
124.620757
21
104.674298
31
0.0
0
LINE
8
Layer 1
62
4
5
2db
100
AcDbEntity
100
AcDbLine
10
124.620757
20
104.674298
30
0.0
11
123.551305
21
106.858946
31
0.0
0
LINE
8
Layer 1
62
4
5
2dc
100
AcDbEntity
100
AcDbLine
10
123.551305
20
106.858946
30
0.0
11
122.270102
21
108.990689
31
0.0
0
LINE
8
Layer 1
62
4
5
2dd
100
AcDbEntity
100
AcDbLine
10
122.270102
20
108.990689
30
0.0
11
120.810953
21
111.005847
31
0.0
0
LINE
8
Layer 1
62
4
5
2de
100
AcDbEntity
100
AcDbLine
10
120.810953
20
111.005847
30
0.0
11
119.219212
21
112.848310
31
0.0
0
LINE
8
Layer 1
62
4
5
2df
100
AcDbEntity
100
AcDbLine
10
119.219212
20
112.848310
30
0.0
11
117.510278
21
114.513558
31
0.0
0
LINE
8
Layer 1
62
4
5
2e0
100
AcDbEntity
100
AcDbLine
10
117.510278
20
114.513558
30
0.0
11
115.699548
21
115.997076
31
0.0
0
LINE
8
Layer 1
62
4
5
2e1
100
AcDbEntity
100
AcDbLine
10
115.699548
20
115.997076
30
0.0
11
113.802424
21
117.294341
31
0.0
0
LINE
8
Layer 1
62
4
5
2e2
100
AcDbEntity
100
AcDbLine
10
113.802424
20
117.294341
30
0.0
11
111.834303
21
118.400837
31
0.0
0
LINE
8
Layer 1
62
4
5
2e3
100
AcDbEntity
100
AcDbLine
10
111.834303
20
118.400837
30
0.0
11
109.810581
21
119.312047
31
0.0
0
LINE
8
Layer 1
62
4
5
2e4
100
AcDbEntity
100
AcDbLine
10
109.810581
20
119.312047
30
0.0
11
107.746659
21
120.023450
31
0.0
0
LINE
8
Layer 1
62
4
5
2e5
100
AcDbEntity
100
AcDbLine
10
107.746659
20
120.023450
30
0.0
11
105.657933
21
120.530531
31
0.0
0
LINE
8
Layer 1
62
4
5
2e6
100
AcDbEntity
100
AcDbLine
10
105.657933
20
120.530531
30
0.0
11
103.559804
21
120.828769
31
0.0
0
LINE
8
Layer 1
62
4
5
2e7
100
AcDbEntity
100
AcDbLine
10
103.559804
20
120.828769
30
0.0
11
101.467669
21
120.913647
31
0.0
0
LINE
8
Layer 1
62
4
5
2e8
100
AcDbEntity
100
AcDbLine
10
101.467669
20
120.913647
30
0.0
11
99.396928
21
120.780646
31
0.0
0
LINE
8
Layer 1
62
4
5
2e9
100
AcDbEntity
100
AcDbLine
10
99.396928
20
120.780646
30
0.0
11
97.362978
21
120.425249
31
0.0
0
LINE
8
Layer 1
62
4
5
2ea
100
AcDbEntity
100
AcDbLine
10
97.362978
20
120.425249
30
0.0
11
95.381217
21
119.842937
31
0.0
0
LINE
8
Layer 1
62
4
5
2eb
100
AcDbEntity
100
AcDbLine
10
95.381217
20
119.842937
30
0.0
11
93.467045
21
119.029192
31
0.0
0
LINE
8
Layer 1
62
4
5
2ec
100
AcDbEntity
100
AcDbLine
10
93.467045
20
119.029192
30
0.0
11
91.635859
21
117.979495
31
0.0
0
LINE
8
Layer 1
62
4
5
2ed
100
AcDbEntity
100
AcDbLine
10
91.635859
20
117.979495
30
0.0
11
91.635859
21
117.979495
31
0.0
0
LINE
8
Layer 1
62
4
5
2ee
100
AcDbEntity
100
AcDbLine
10
18.377759
20
106.655221
30
0.0
11
19.291639
21
106.775648
31
0.0
0
LINE
8
Layer 1
62
4
5
2ef
100
AcDbEntity
100
AcDbLine
10
19.291639
20
106.775648
30
0.0
11
20.108257
21
106.632469
31
0.0
0
LINE
8
Layer 1
62
4
5
2f0
100
AcDbEntity
100
AcDbLine
10
20.108257
20
106.632469
30
0.0
11
20.830456
21
106.243445
31
0.0
0
LINE
8
Layer 1
62
4
5
2f1
100
AcDbEntity
100
AcDbLine
10
20.830456
20
106.243445
30
0.0
11
21.461081
21
105.626337
31
0.0
0
LINE
8
Layer 1
62
4
5
2f2
100
AcDbEntity
100
AcDbLine
10
21.461081
20
105.626337
30
0.0
11
22.002975
21
104.798905
31
0.0
0
LINE
8
Layer 1
62
4
5
2f3
100
AcDbEntity
100
AcDbLine
10
22.002975
20
104.798905
30
0.0
11
22.458983
21
103.778911
31
0.0
0
LINE
8
Layer 1
62
4
5
2f4
100
AcDbEntity
100
AcDbLine
10
22.458983
20
103.778911
30
0.0
11
23.124714
21
101.232287
31
0.0
0
LINE
8
Layer 1
62
4
5
2f5
100
AcDbEntity
100
AcDbLine
10
23.124714
20
101.232287
30
0.0
11
23.481027
21
98.128556
31
0.0
0
LINE
8
Layer 1
62
4
5
2f6
100
AcDbEntity
100
AcDbLine
10
23.481027
20
98.128556
30
0.0
11
23.550673
21
94.609807
31
0.0
0
LINE
8
Layer 1
62
4
5
2f7
100
AcDbEntity
100
AcDbLine
10
23.550673
20
94.609807
30
0.0
11
23.356405
21
90.818132
31
0.0
0
LINE
8
Layer 1
62
4
5
2f8
100
AcDbEntity
100
AcDbLine
10
23.356405
20
90.818132
30
0.0
11
22.920974
21
86.895624
31
0.0
0
LINE
8
Layer 1
62
4
5
2f9
100
AcDbEntity
100
AcDbLine
10
22.920974
20
86.895624
30
0.0
11
22.267132
21
82.984374
31
0.0
0
LINE
8
Layer 1
62
4
5
2fa
100
AcDbEntity
100
AcDbLine
10
22.267132
20
82.984374
30
0.0
11
21.417631
21
79.226472
31
0.0
0
LINE
8
Layer 1
62
4
5
2fb
100
AcDbEntity
100
AcDbLine
10
21.417631
20
79.226472
30
0.0
11
20.395223
21
75.764010
31
0.0
0
LINE
8
Layer 1
62
4
5
2fc
100
AcDbEntity
100
AcDbLine
10
20.395223
20
75.764010
30
0.0
11
19.222660
21
72.739081
31
0.0
0
LINE
8
Layer 1
62
4
5
2fd
100
AcDbEntity
100
AcDbLine
10
19.222660
20
72.739081
30
0.0
11
17.922694
21
70.293773
31
0.0
0
LINE
8
Layer 1
62
4
5
2fe
100
AcDbEntity
100
AcDbLine
10
17.922694
20
70.293773
30
0.0
11
16.518076
21
68.570181
31
0.0
0
LINE
8
Layer 1
62
4
5
2ff
100
AcDbEntity
100
AcDbLine
10
16.518076
20
68.570181
30
0.0
11
15.783633
21
68.023431
31
0.0
0
LINE
8
Layer 1
62
4
5
300
100
AcDbEntity
100
AcDbLine
10
15.783633
20
68.023431
30
0.0
11
15.031559
21
67.710394
31
0.0
0
LINE
8
Layer 1
62
4
5
301
100
AcDbEntity
100
AcDbLine
10
15.031559
20
67.710394
30
0.0
11
14.264698
21
67.648831
31
0.0
0
LINE
8
Layer 1
62
4
5
302
100
AcDbEntity
100
AcDbLine
10
14.264698
20
67.648831
30
0.0
11
13.485894
21
67.856504
31
0.0
0
LINE
8
Layer 1
62
4
5
303
100
AcDbEntity
100
AcDbLine
10
13.485894
20
67.856504
30
0.0
11
11.837934
21
69.404379
31
0.0
0
LINE
8
Layer 1
62
4
5
304
100
AcDbEntity
100
AcDbLine
10
11.837934
20
69.404379
30
0.0
11
10.356278
21
71.248256
31
0.0
0
LINE
8
Layer 1
62
4
5
305
100
AcDbEntity
100
AcDbLine
10
10.356278
20
71.248256
30
0.0
11
9.061108
21
73.349758
31
0.0
0
LINE
8
Layer 1
62
4
5
306
100
AcDbEntity
100
AcDbLine
10
9.061108
20
73.349758
30
0.0
11
7.972608
21
75.670517
31
0.0
0
LINE
8
Layer 1
62
4
5
307
100
AcDbEntity
100
AcDbLine
10
7.972608
20
75.670517
30
0.0
11
7.110962
21
78.172167
31
0.0
0
LINE
8
Layer 1
62
4
5
308
100
AcDbEntity
100
AcDbLine
10
7.110962
20
78.172167
30
0.0
11
6.496354
21
80.816337
31
0.0
0
LINE
8
Layer 1
62
4
5
309
100
AcDbEntity
100
AcDbLine
10
6.496354
20
80.816337
30
0.0
11
6.148967
21
83.564654
31
0.0
0
LINE
8
Layer 1
62
4
5
30a
100
AcDbEntity
100
AcDbLine
10
6.148967
20
83.564654
30
0.0
11
6.088986
21
86.378751
31
0.0
0
LINE
8
Layer 1
62
4
5
30b
100
AcDbEntity
100
AcDbLine
10
6.088986
20
86.378751
30
0.0
11
6.336593
21
89.220259
31
0.0
0
LINE
8
Layer 1
62
4
5
30c
100
AcDbEntity
100
AcDbLine
10
6.336593
20
89.220259
30
0.0
11
6.911973
21
92.050805
31
0.0
0
LINE
8
Layer 1
62
4
5
30d
100
AcDbEntity
100
AcDbLine
10
6.911973
20
92.050805
30
0.0
11
7.835309
21
94.832023
31
0.0
0
LINE
8
Layer 1
62
4
5
30e
100
AcDbEntity
100
AcDbLine
10
7.835309
20
94.832023
30
0.0
11
9.126784
21
97.525541
31
0.0
0
LINE
8
Layer 1
62
4
5
30f
100
AcDbEntity
100
AcDbLine
10
9.126784
20
97.525541
30
0.0
11
10.806583
21
100.092989
31
0.0
0
LINE
8
Layer 1
62
4
5
310
100
AcDbEntity
100
AcDbLine
10
10.806583
20
100.092989
30
0.0
11
12.894890
21
102.495999
31
0.0
0
LINE
8
Layer 1
62
4
5
311
100
AcDbEntity
100
AcDbLine
10
12.894890
20
102.495999
30
0.0
11
15.411887
21
104.696199
31
0.0
0
LINE
8
Layer 1
62
4
5
312
100
AcDbEntity
100
AcDbLine
10
15.411887
20
104.696199
30
0.0
11
18.377759
21
106.655221
31
0.0
0
LINE
8
Layer 1
62
4
5
313
100
AcDbEntity
100
AcDbLine
10
18.377759
20
106.655221
30
0.0
11
18.377759
21
106.655221
31
0.0
0
LINE
8
Layer 1
62
4
5
314
100
AcDbEntity
100
AcDbLine
10
137.127846
20
107.219665
30
0.0
11
136.213966
21
107.340093
31
0.0
0
LINE
8
Layer 1
62
4
5
315
100
AcDbEntity
100
AcDbLine
10
136.213966
20
107.340093
30
0.0
11
135.397348
21
107.196914
31
0.0
0
LINE
8
Layer 1
62
4
5
316
100
AcDbEntity
100
AcDbLine
10
135.397348
20
107.196914
30
0.0
11
134.675148
21
106.807889
31
0.0
0
LINE
8
Layer 1
62
4
5
317
100
AcDbEntity
100
AcDbLine
10
134.675148
20
106.807889
30
0.0
11
134.044523
21
106.190780
31
0.0
0
LINE
8
Layer 1
62
4
5
318
100
AcDbEntity
100
AcDbLine
10
134.044523
20
106.190780
30
0.0
11
133.502629
21
105.363348
31
0.0
0
LINE
8
Layer 1
62
4
5
319
100
AcDbEntity
100
AcDbLine
10
133.502629
20
105.363348
30
0.0
11
133.046622
21
104.343355
31
0.0
0
LINE
8
Layer 1
62
4
5
31a
100
AcDbEntity
100
AcDbLine
10
133.046622
20
104.343355
30
0.0
11
132.380891
21
101.796731
31
0.0
0
LINE
8
Layer 1
62
4
5
31b
100
AcDbEntity
100
AcDbLine
10
132.380891
20
101.796731
30
0.0
11
132.024579
21
98.693000
31
0.0
0
LINE
8
Layer 1
62
4
5
31c
100
AcDbEntity
100
AcDbLine
10
132.024579
20
98.693000
30
0.0
11
131.954932
21
95.174251
31
0.0
0
LINE
8
Layer 1
62
4
5
31d
100
AcDbEntity
100
AcDbLine
10
131.954932
20
95.174251
30
0.0
11
132.149200
21
91.382577
31
0.0
0
LINE
8
Layer 1
62
4
5
31e
100
AcDbEntity
100
AcDbLine
10
132.149200
20
91.382577
30
0.0
11
132.584630
21
87.460068
31
0.0
0
LINE
8
Layer 1
62
4
5
31f
100
AcDbEntity
100
AcDbLine
10
132.584630
20
87.460068
30
0.0
11
133.238472
21
83.548818
31
0.0
0
LINE
8
Layer 1
62
4
5
320
100
AcDbEntity
100
AcDbLine
10
133.238472
20
83.548818
30
0.0
11
134.087973
21
79.790917
31
0.0
0
LINE
8
Layer 1
62
4
5
321
100
AcDbEntity
100
AcDbLine
10
134.087973
20
79.790917
30
0.0
11
135.110381
21
76.328455
31
0.0
0
LINE
8
Layer 1
62
4
5
322
100
AcDbEntity
100
AcDbLine
10
135.110381
20
76.328455
30
0.0
11
136.282944
21
73.303525
31
0.0
0
LINE
8
Layer 1
62
4
5
323
100
AcDbEntity
100
AcDbLine
10
136.282944
20
73.303525
30
0.0
11
137.582911
21
70.858218
31
0.0
0
LINE
8
Layer 1
62
4
5
324
100
AcDbEntity
100
AcDbLine
10
137.582911
20
70.858218
30
0.0
11
138.987529
21
69.134625
31
0.0
0
LINE
8
Layer 1
62
4
5
325
100
AcDbEntity
100
AcDbLine
10
138.987529
20
69.134625
30
0.0
11
139.721973
21
68.587875
31
0.0
0
LINE
8
Layer 1
62
4
5
326
100
AcDbEntity
100
AcDbLine
10
139.721973
20
68.587875
30
0.0
11
140.474047
21
68.274837
31
0.0
0
LINE
8
Layer 1
62
4
5
327
100
AcDbEntity
100
AcDbLine
10
140.474047
20
68.274837
30
0.0
11
141.240908
21
68.213275
31
0.0
0
LINE
8
Layer 1
62
4
5
328
100
AcDbEntity
100
AcDbLine
10
141.240908
20
68.213275
30
0.0
11
142.019711
21
68.420948
31
0.0
0
LINE
8
Layer 1
62
4
5
329
100
AcDbEntity
100
AcDbLine
10
142.019711
20
68.420948
30
0.0
11
143.667671
21
69.968825
31
0.0
0
LINE
8
Layer 1
62
4
5
32a
100
AcDbEntity
100
AcDbLine
10
143.667671
20
69.968825
30
0.0
11
145.149328
21
71.812699
31
0.0
0
LINE
8
Layer 1
62
4
5
32b
100
AcDbEntity
100
AcDbLine
10
145.149328
20
71.812699
30
0.0
11
146.444498
21
73.914201
31
0.0
0
LINE
8
Layer 1
62
4
5
32c
100
AcDbEntity
100
AcDbLine
10
146.444498
20
73.914201
30
0.0
11
147.532999
21
76.234962
31
0.0
0
LINE
8
Layer 1
62
4
5
32d
100
AcDbEntity
100
AcDbLine
10
147.532999
20
76.234962
30
0.0
11
148.394644
21
78.736612
31
0.0
0
LINE
8
Layer 1
62
4
5
32e
100
AcDbEntity
100
AcDbLine
10
148.394644
20
78.736612
30
0.0
11
149.009252
21
81.380782
31
0.0
0
LINE
8
Layer 1
62
4
5
32f
100
AcDbEntity
100
AcDbLine
10
149.009252
20
81.380782
30
0.0
11
149.356639
21
84.129099
31
0.0
0
LINE
8
Layer 1
62
4
5
330
100
AcDbEntity
100
AcDbLine
10
149.356639
20
84.129099
30
0.0
11
149.416620
21
86.943195
31
0.0
0
LINE
8
Layer 1
62
4
5
331
100
AcDbEntity
100
AcDbLine
10
149.416620
20
86.943195
30
0.0
11
149.169013
21
89.784703
31
0.0
0
LINE
8
Layer 1
62
4
5
332
100
AcDbEntity
100
AcDbLine
10
149.169013
20
89.784703
30
0.0
11
148.593633
21
92.615250
31
0.0
0
LINE
8
Layer 1
62
4
5
333
100
AcDbEntity
100
AcDbLine
10
148.593633
20
92.615250
30
0.0
11
147.670297
21
95.396468
31
0.0
0
LINE
8
Layer 1
62
4
5
334
100
AcDbEntity
100
AcDbLine
10
147.670297
20
95.396468
30
0.0
11
146.378823
21
98.089985
31
0.0
0
LINE
8
Layer 1
62
4
5
335
100
AcDbEntity
100
AcDbLine
10
146.378823
20
98.089985
30
0.0
11
144.699023
21
100.657433
31
0.0
0
LINE
8
Layer 1
62
4
5
336
100
AcDbEntity
100
AcDbLine
10
144.699023
20
100.657433
30
0.0
11
142.610716
21
103.060442
31
0.0
0
LINE
8
Layer 1
62
4
5
337
100
AcDbEntity
100
AcDbLine
10
142.610716
20
103.060442
30
0.0
11
140.093718
21
105.260643
31
0.0
0
LINE
8
Layer 1
62
4
5
338
100
AcDbEntity
100
AcDbLine
10
140.093718
20
105.260643
30
0.0
11
137.127846
21
107.219665
31
0.0
0
LINE
8
Layer 1
62
4
5
339
100
AcDbEntity
100
AcDbLine
10
137.127846
20
107.219665
30
0.0
11
137.127846
21
107.219665
31
0.0
0
LINE
8
Layer 1
62
4
5
33a
100
AcDbEntity
100
AcDbLine
10
102.215067
20
140.926707
30
0.0
11
105.502154
21
141.330781
31
0.0
0
LINE
8
Layer 1
62
4
5
33b
100
AcDbEntity
100
AcDbLine
10
105.502154
20
141.330781
30
0.0
11
108.701312
21
141.424820
31
0.0
0
LINE
8
Layer 1
62
4
5
33c
100
AcDbEntity
100
AcDbLine
10
108.701312
20
141.424820
30
0.0
11
111.794419
21
141.215911
31
0.0
0
LINE
8
Layer 1
62
4
5
33d
100
AcDbEntity
100
AcDbLine
10
111.794419
20
141.215911
30
0.0
11
114.763355
21
140.711137
31
0.0
0
LINE
8
Layer 1
62
4
5
33e
100
AcDbEntity
100
AcDbLine
10
114.763355
20
140.711137
30
0.0
11
117.590001
21
139.917587
31
0.0
0
LINE
8
Layer 1
62
4
5
33f
100
AcDbEntity
100
AcDbLine
10
117.590001
20
139.917587
30
0.0
11
120.256234
21
138.842344
31
0.0
0
LINE
8
Layer 1
62
4
5
340
100
AcDbEntity
100
AcDbLine
10
120.256234
20
138.842344
30
0.0
11
122.743934
21
137.492495
31
0.0
0
LINE
8
Layer 1
62
4
5
341
100
AcDbEntity
100
AcDbLine
10
122.743934
20
137.492495
30
0.0
11
125.034983
21
135.875124
31
0.0
0
LINE
8
Layer 1
62
4
5
342
100
AcDbEntity
100
AcDbLine
10
125.034983
20
135.875124
30
0.0
11
127.111257
21
133.997320
31
0.0
0
LINE
8
Layer 1
62
4
5
343
100
AcDbEntity
100
AcDbLine
10
127.111257
20
133.997320
30
0.0
11
128.954638
21
131.866165
31
0.0
0
LINE
8
Layer 1
62
4
5
344
100
AcDbEntity
100
AcDbLine
10
128.954638
20
131.866165
30
0.0
11
130.547004
21
129.488746
31
0.0
0
LINE
8
Layer 1
62
4
5
345
100
AcDbEntity
100
AcDbLine
10
130.547004
20
129.488746
30
0.0
11
131.870236
21
126.872148
31
0.0
0
LINE
8
Layer 1
62
4
5
346
100
AcDbEntity
100
AcDbLine
10
131.870236
20
126.872148
30
0.0
11
132.906209
21
124.023457
31
0.0
0
LINE
8
Layer 1
62
4
5
347
100
AcDbEntity
100
AcDbLine
10
132.906209
20
124.023457
30
0.0
11
133.636807
21
120.949759
31
0.0
0
LINE
8
Layer 1
62
4
5
348
100
AcDbEntity
100
AcDbLine
10
133.636807
20
120.949759
30
0.0
11
134.043907
21
117.658139
31
0.0
0
LINE
8
Layer 1
62
4
5
349
100
AcDbEntity
100
AcDbLine
10
134.043907
20
117.658139
30
0.0
11
134.109389
21
114.155683
31
0.0
0
LINE
8
Layer 1
62
4
5
34a
100
AcDbEntity
100
AcDbLine
10
134.109389
20
114.155683
30
0.0
11
133.948032
21
113.580764
31
0.0
0
LINE
8
Layer 1
62
4
5
34b
100
AcDbEntity
100
AcDbLine
10
133.948032
20
113.580764
30
0.0
11
133.583301
21
113.229415
31
0.0
0
LINE
8
Layer 1
62
4
5
34c
100
AcDbEntity
100
AcDbLine
10
133.583301
20
113.229415
30
0.0
11
133.030143
21
113.088385
31
0.0
0
LINE
8
Layer 1
62
4
5
34d
100
AcDbEntity
100
AcDbLine
10
133.030143
20
113.088385
30
0.0
11
132.303507
21
113.144426
31
0.0
0
LINE
8
Layer 1
62
4
5
34e
100
AcDbEntity
100
AcDbLine
10
132.303507
20
113.144426
30
0.0
11
130.389594
21
113.794712
31
0.0
0
LINE
8
Layer 1
62
4
5
34f
100
AcDbEntity
100
AcDbLine
10
130.389594
20
113.794712
30
0.0
11
127.961147
21
115.074268
31
0.0
0
LINE
8
Layer 1
62
4
5
350
100
AcDbEntity
100
AcDbLine
10
127.961147
20
115.074268
30
0.0
11
125.137751
21
116.877094
31
0.0
0
LINE
8
Layer 1
62
4
5
351
100
AcDbEntity
100
AcDbLine
10
125.137751
20
116.877094
30
0.0
11
122.038991
21
119.097183
31
0.0
0
LINE
8
Layer 1
62
4
5
352
100
AcDbEntity
100
AcDbLine
10
122.038991
20
119.097183
30
0.0
11
115.493718
21
124.365137
31
0.0
0
LINE
8
Layer 1
62
4
5
353
100
AcDbEntity
100
AcDbLine
10
115.493718
20
124.365137
30
0.0
11
109.282008
21
130.030097
31
0.0
0
LINE
8
Layer 1
62
4
5
354
100
AcDbEntity
100
AcDbLine
10
109.282008
20
130.030097
30
0.0
11
106.600203
21
132.746444
31
0.0
0
LINE
8
Layer 1
62
4
5
355
100
AcDbEntity
100
AcDbLine
10
106.600203
20
132.746444
30
0.0
11
104.360543
21
135.244033
31
0.0
0
LINE
8
Layer 1
62
4
5
356
100
AcDbEntity
100
AcDbLine
10
104.360543
20
135.244033
30
0.0
11
102.682615
21
137.416856
31
0.0
0
LINE
8
Layer 1
62
4
5
357
100
AcDbEntity
100
AcDbLine
10
102.682615
20
137.416856
30
0.0
11
101.686003
21
139.158913
31
0.0
0
LINE
8
Layer 1
62
4
5
358
100
AcDbEntity
100
AcDbLine
10
101.686003
20
139.158913
30
0.0
11
101.480561
21
139.835277
31
0.0
0
LINE
8
Layer 1
62
4
5
359
100
AcDbEntity
100
AcDbLine
10
101.480561
20
139.835277
30
0.0
11
101.490292
21
140.364198
31
0.0
0
LINE
8
Layer 1
62
4
5
35a
100
AcDbEntity
100
AcDbLine
10
101.490292
20
140.364198
30
0.0
11
101.730145
21
140.732425
31
0.0
0
LINE
8
Layer 1
62
4
5
35b
100
AcDbEntity
100
AcDbLine
10
101.730145
20
140.732425
30
0.0
11
102.215067
21
140.926707
31
0.0
0
LINE
8
Layer 1
62
4
5
35c
100
AcDbEntity
100
AcDbLine
10
102.215067
20
140.926707
30
0.0
11
102.215067
21
140.926707
31
0.0
0
LINE
8
Layer 1
62
4
5
35d
100
AcDbEntity
100
AcDbLine
10
102.215067
20
140.926707
30
0.0
11
102.215067
21
140.926707
31
0.0
0
LINE
8
Layer 1
62
4
5
35e
100
AcDbEntity
100
AcDbLine
10
53.217950
20
141.491152
30
0.0
11
49.930864
21
141.895225
31
0.0
0
LINE
8
Layer 1
62
4
5
35f
100
AcDbEntity
100
AcDbLine
10
49.930864
20
141.895225
30
0.0
11
46.731706
21
141.989265
31
0.0
0
LINE
8
Layer 1
62
4
5
360
100
AcDbEntity
100
AcDbLine
10
46.731706
20
141.989265
30
0.0
11
43.638599
21
141.780355
31
0.0
0
LINE
8
Layer 1
62
4
5
361
100
AcDbEntity
100
AcDbLine
10
43.638599
20
141.780355
30
0.0
11
40.669662
21
141.275582
31
0.0
0
LINE
8
Layer 1
62
4
5
362
100
AcDbEntity
100
AcDbLine
10
40.669662
20
141.275582
30
0.0
11
37.843016
21
140.482032
31
0.0
0
LINE
8
Layer 1
62
4
5
363
100
AcDbEntity
100
AcDbLine
10
37.843016
20
140.482032
30
0.0
11
35.176783
21
139.406789
31
0.0
0
LINE
8
Layer 1
62
4
5
364
100
AcDbEntity
100
AcDbLine
10
35.176783
20
139.406789
30
0.0
11
32.689082
21
138.056939
31
0.0
0
LINE
8
Layer 1
62
4
5
365
100
AcDbEntity
100
AcDbLine
10
32.689082
20
138.056939
30
0.0
11
30.398034
21
136.439569
31
0.0
0
LINE
8
Layer 1
62
4
5
366
100
AcDbEntity
100
AcDbLine
10
30.398034
20
136.439569
30
0.0
11
28.321760
21
134.561764
31
0.0
0
LINE
8
Layer 1
62
4
5
367
100
AcDbEntity
100
AcDbLine
10
28.321760
20
134.561764
30
0.0
11
26.478379
21
132.430610
31
0.0
0
LINE
8
Layer 1
62
4
5
368
100
AcDbEntity
100
AcDbLine
10
26.478379
20
132.430610
30
0.0
11
24.886014
21
130.053190
31
0.0
0
LINE
8
Layer 1
62
4
5
369
100
AcDbEntity
100
AcDbLine
10
24.886014
20
130.053190
30
0.0
11
23.562784
21
127.436592
31
0.0
0
LINE
8
Layer 1
62
4
5
36a
100
AcDbEntity
100
AcDbLine
10
23.562784
20
127.436592
30
0.0
11
22.526809
21
124.587901
31
0.0
0
LINE
8
Layer 1
62
4
5
36b
100
AcDbEntity
100
AcDbLine
10
22.526809
20
124.587901
30
0.0
11
21.796212
21
121.514204
31
0.0
0
LINE
8
Layer 1
62
4
5
36c
100
AcDbEntity
100
AcDbLine
10
21.796212
20
121.514204
30
0.0
11
21.389111
21
118.222584
31
0.0
0
LINE
8
Layer 1
62
4
5
36d
100
AcDbEntity
100
AcDbLine
10
21.389111
20
118.222584
30
0.0
11
21.323629
21
114.720127
31
0.0
0
LINE
8
Layer 1
62
4
5
36e
100
AcDbEntity
100
AcDbLine
10
21.323629
20
114.720127
30
0.0
11
21.484986
21
114.145208
31
0.0
0
LINE
8
Layer 1
62
4
5
36f
100
AcDbEntity
100
AcDbLine
10
21.484986
20
114.145208
30
0.0
11
21.849717
21
113.793859
31
0.0
0
LINE
8
Layer 1
62
4
5
370
100
AcDbEntity
100
AcDbLine
10
21.849717
20
113.793859
30
0.0
11
22.402875
21
113.652830
31
0.0
0
LINE
8
Layer 1
62
4
5
371
100
AcDbEntity
100
AcDbLine
10
22.402875
20
113.652830
30
0.0
11
23.129511
21
113.708870
31
0.0
0
LINE
8
Layer 1
62
4
5
372
100
AcDbEntity
100
AcDbLine
10
23.129511
20
113.708870
30
0.0
11
25.043423
21
114.359156
31
0.0
0
LINE
8
Layer 1
62
4
5
373
100
AcDbEntity
100
AcDbLine
10
25.043423
20
114.359156
30
0.0
11
27.471870
21
115.638713
31
0.0
0
LINE
8
Layer 1
62
4
5
374
100
AcDbEntity
100
AcDbLine
10
27.471870
20
115.638713
30
0.0
11
30.295266
21
117.441538
31
0.0
0
LINE
8
Layer 1
62
4
5
375
100
AcDbEntity
100
AcDbLine
10
30.295266
20
117.441538
30
0.0
11
33.394027
21
119.661628
31
0.0
0
LINE
8
Layer 1
62
4
5
376
100
AcDbEntity
100
AcDbLine
10
33.394027
20
119.661628
30
0.0
11
39.939299
21
124.929581
31
0.0
0
LINE
8
Layer 1
62
4
5
377
100
AcDbEntity
100
AcDbLine
10
39.939299
20
124.929581
30
0.0
11
46.151008
21
130.594541
31
0.0
0
LINE
8
Layer 1
62
4
5
378
100
AcDbEntity
100
AcDbLine
10
46.151008
20
130.594541
30
0.0
11
48.832814
21
133.310889
31
0.0
0
LINE
8
Layer 1
62
4
5
379
100
AcDbEntity
100
AcDbLine
10
48.832814
20
133.310889
30
0.0
11
51.072474
21
135.808477
31
0.0
0
LINE
8
Layer 1
62
4
5
37a
100
AcDbEntity
100
AcDbLine
10
51.072474
20
135.808477
30
0.0
11
52.750402
21
137.981301
31
0.0
0
LINE
8
Layer 1
62
4
5
37b
100
AcDbEntity
100
AcDbLine
10
52.750402
20
137.981301
30
0.0
11
53.747015
21
139.723357
31
0.0
0
LINE
8
Layer 1
62
4
5
37c
100
AcDbEntity
100
AcDbLine
10
53.747015
20
139.723357
30
0.0
11
53.952457
21
140.399721
31
0.0
0
LINE
8
Layer 1
62
4
5
37d
100
AcDbEntity
100
AcDbLine
10
53.952457
20
140.399721
30
0.0
11
53.942726
21
140.928642
31
0.0
0
LINE
8
Layer 1
62
4
5
37e
100
AcDbEntity
100
AcDbLine
10
53.942726
20
140.928642
30
0.0
11
53.702873
21
141.296869
31
0.0
0
LINE
8
Layer 1
62
4
5
37f
100
AcDbEntity
100
AcDbLine
10
53.702873
20
141.296869
30
0.0
11
53.217950
21
141.491152
31
0.0
0
LINE
8
Layer 1
62
4
5
380
100
AcDbEntity
100
AcDbLine
10
53.217950
20
141.491152
30
0.0
11
53.217950
21
141.491152
31
0.0
0
LINE
8
Layer 1
62
4
5
381
100
AcDbEntity
100
AcDbLine
10
78.691207
20
145.977841
30
0.0
11
76.714057
21
145.933838
31
0.0
0
LINE
8
Layer 1
62
4
5
382
100
AcDbEntity
100
AcDbLine
10
76.714057
20
145.933838
30
0.0
11
74.761114
21
145.710135
31
0.0
0
LINE
8
Layer 1
62
4
5
383
100
AcDbEntity
100
AcDbLine
10
74.761114
20
145.710135
30
0.0
11
72.846598
21
145.324045
31
0.0
0
LINE
8
Layer 1
62
4
5
384
100
AcDbEntity
100
AcDbLine
10
72.846598
20
145.324045
30
0.0
11
70.984728
21
144.792886
31
0.0
0
LINE
8
Layer 1
62
4
5
385
100
AcDbEntity
100
AcDbLine
10
70.984728
20
144.792886
30
0.0
11
67.475808
21
143.364623
31
0.0
0
LINE
8
Layer 1
62
4
5
386
100
AcDbEntity
100
AcDbLine
10
67.475808
20
143.364623
30
0.0
11
64.348117
21
141.563866
31
0.0
0
LINE
8
Layer 1
62
4
5
387
100
AcDbEntity
100
AcDbLine
10
64.348117
20
141.563866
30
0.0
11
61.715413
21
139.529143
31
0.0
0
LINE
8
Layer 1
62
4
5
388
100
AcDbEntity
100
AcDbLine
10
61.715413
20
139.529143
30
0.0
11
59.691459
21
137.398977
31
0.0
0
LINE
8
Layer 1
62
4
5
389
100
AcDbEntity
100
AcDbLine
10
59.691459
20
137.398977
30
0.0
11
58.943315
21
136.341392
31
0.0
0
LINE
8
Layer 1
62
4
5
38a
100
AcDbEntity
100
AcDbLine
10
58.943315
20
136.341392
30
0.0
11
58.390018
21
135.311892
31
0.0
0
LINE
8
Layer 1
62
4
5
38b
100
AcDbEntity
100
AcDbLine
10
58.390018
20
135.311892
30
0.0
11
58.045790
21
134.327794
31
0.0
0
LINE
8
Layer 1
62
4
5
38c
100
AcDbEntity
100
AcDbLine
10
58.045790
20
134.327794
30
0.0
11
57.924850
21
133.406413
31
0.0
0
LINE
8
Layer 1
62
4
5
38d
100
AcDbEntity
100
AcDbLine
10
57.924850
20
133.406413
30
0.0
11
58.017007
21
132.331808
31
0.0
0
LINE
8
Layer 1
62
4
5
38e
100
AcDbEntity
100
AcDbLine
10
58.017007
20
132.331808
30
0.0
11
58.300301
21
131.262577
31
0.0
0
LINE
8
Layer 1
62
4
5
38f
100
AcDbEntity
100
AcDbLine
10
58.300301
20
131.262577
30
0.0
11
58.768350
21
130.207294
31
0.0
0
LINE
8
Layer 1
62
4
5
390
100
AcDbEntity
100
AcDbLine
10
58.768350
20
130.207294
30
0.0
11
59.414777
21
129.174539
31
0.0
0
LINE
8
Layer 1
62
4
5
391
100
AcDbEntity
100
AcDbLine
10
59.414777
20
129.174539
30
0.0
11
61.217246
21
127.210910
31
0.0
0
LINE
8
Layer 1
62
4
5
392
100
AcDbEntity
100
AcDbLine
10
61.217246
20
127.210910
30
0.0
11
63.656678
21
125.440299
31
0.0
0
LINE
8
Layer 1
62
4
5
393
100
AcDbEntity
100
AcDbLine
10
63.656678
20
125.440299
30
0.0
11
66.682036
21
123.931316
31
0.0
0
LINE
8
Layer 1
62
4
5
394
100
AcDbEntity
100
AcDbLine
10
66.682036
20
123.931316
30
0.0
11
70.242292
21
122.752570
31
0.0
0
LINE
8
Layer 1
62
4
5
395
100
AcDbEntity
100
AcDbLine
10
70.242292
20
122.752570
30
0.0
11
74.286412
21
121.972671
31
0.0
0
LINE
8
Layer 1
62
4
5
396
100
AcDbEntity
100
AcDbLine
10
74.286412
20
121.972671
30
0.0
11
78.763365
21
121.660226
31
0.0
0
LINE
8
Layer 1
62
4
5
397
100
AcDbEntity
100
AcDbLine
10
78.763365
20
121.660226
30
0.0
11
83.316060
21
121.847382
31
0.0
0
LINE
8
Layer 1
62
4
5
398
100
AcDbEntity
100
AcDbLine
10
83.316060
20
121.847382
30
0.0
11
87.395942
21
122.447942
31
0.0
0
LINE
8
Layer 1
62
4
5
399
100
AcDbEntity
100
AcDbLine
10
87.395942
20
122.447942
30
0.0
11
90.962279
21
123.417933
31
0.0
0
LINE
8
Layer 1
62
4
5
39a
100
AcDbEntity
100
AcDbLine
10
90.962279
20
123.417933
30
0.0
11
93.974333
21
124.713373
31
0.0
0
LINE
8
Layer 1
62
4
5
39b
100
AcDbEntity
100
AcDbLine
10
93.974333
20
124.713373
30
0.0
11
96.391373
21
126.290290
31
0.0
0
LINE
8
Layer 1
62
4
5
39c
100
AcDbEntity
100
AcDbLine
10
96.391373
20
126.290290
30
0.0
11
97.364032
21
127.170558
31
0.0
0
LINE
8
Layer 1
62
4
5
39d
100
AcDbEntity
100
AcDbLine
10
97.364032
20
127.170558
30
0.0
11
98.172662
21
128.104702
31
0.0
0
LINE
8
Layer 1
62
4
5
39e
100
AcDbEntity
100
AcDbLine
10
98.172662
20
128.104702
30
0.0
11
98.812171
21
129.087228
31
0.0
0
LINE
8
Layer 1
62
4
5
39f
100
AcDbEntity
100
AcDbLine
10
98.812171
20
129.087228
30
0.0
11
99.277468
21
130.112637
31
0.0
0
LINE
8
Layer 1
62
4
5
3a0
100
AcDbEntity
100
AcDbLine
10
99.277468
20
130.112637
30
0.0
11
99.563459
21
131.175431
31
0.0
0
LINE
8
Layer 1
62
4
5
3a1
100
AcDbEntity
100
AcDbLine
10
99.563459
20
131.175431
30
0.0
11
99.665053
21
132.270113
31
0.0
0
LINE
8
Layer 1
62
4
5
3a2
100
AcDbEntity
100
AcDbLine
10
99.665053
20
132.270113
30
0.0
11
99.540355
21
133.529312
31
0.0
0
LINE
8
Layer 1
62
4
5
3a3
100
AcDbEntity
100
AcDbLine
10
99.540355
20
133.529312
30
0.0
11
99.162400
21
134.786980
31
0.0
0
LINE
8
Layer 1
62
4
5
3a4
100
AcDbEntity
100
AcDbLine
10
99.162400
20
134.786980
30
0.0
11
98.551567
21
136.031947
31
0.0
0
LINE
8
Layer 1
62
4
5
3a5
100
AcDbEntity
100
AcDbLine
10
98.551567
20
136.031947
30
0.0
11
97.728236
21
137.253040
31
0.0
0
LINE
8
Layer 1
62
4
5
3a6
100
AcDbEntity
100
AcDbLine
10
97.728236
20
137.253040
30
0.0
11
96.712784
21
138.439091
31
0.0
0
LINE
8
Layer 1
62
4
5
3a7
100
AcDbEntity
100
AcDbLine
10
96.712784
20
138.439091
30
0.0
11
95.525591
21
139.578927
31
0.0
0
LINE
8
Layer 1
62
4
5
3a8
100
AcDbEntity
100
AcDbLine
10
95.525591
20
139.578927
30
0.0
11
92.717496
21
141.675271
31
0.0
0
LINE
8
Layer 1
62
4
5
3a9
100
AcDbEntity
100
AcDbLine
10
92.717496
20
141.675271
30
0.0
11
89.466980
21
143.452703
31
0.0
0
LINE
8
Layer 1
62
4
5
3aa
100
AcDbEntity
100
AcDbLine
10
89.466980
20
143.452703
30
0.0
11
85.937073
21
144.821854
31
0.0
0
LINE
8
Layer 1
62
4
5
3ab
100
AcDbEntity
100
AcDbLine
10
85.937073
20
144.821854
30
0.0
11
82.290806
21
145.693357
31
0.0
0
LINE
8
Layer 1
62
4
5
3ac
100
AcDbEntity
100
AcDbLine
10
82.290806
20
145.693357
30
0.0
11
80.474983
21
145.914562
31
0.0
0
LINE
8
Layer 1
62
4
5
3ad
100
AcDbEntity
100
AcDbLine
10
80.474983
20
145.914562
30
0.0
11
78.691207
21
145.977841
31
0.0
0
LINE
8
Layer 1
62
4
5
3ae
100
AcDbEntity
100
AcDbLine
10
78.691207
20
145.977841
30
0.0
11
78.691207
21
145.977841
31
0.0
0
LINE
8
Layer 1
62
4
5
3af
100
AcDbEntity
100
AcDbLine
10
78.691207
20
145.977841
30
0.0
11
78.691207
21
145.977841
31
0.0
0
LINE
8
Layer 1
62
4
5
3b0
100
AcDbEntity
100
AcDbLine
10
79.337510
20
28.471495
30
0.0
11
82.915541
21
28.450669
31
0.0
0
LINE
8
Layer 1
62
4
5
3b1
100
AcDbEntity
100
AcDbLine
10
82.915541
20
28.450669
30
0.0
11
86.607489
21
28.107025
31
0.0
0
LINE
8
Layer 1
62
4
5
3b2
100
AcDbEntity
100
AcDbLine
10
86.607489
20
28.107025
30
0.0
11
90.231573
21
27.471918
31
0.0
0
LINE
8
Layer 1
62
4
5
3b3
100
AcDbEntity
100
AcDbLine
10
90.231573
20
27.471918
30
0.0
11
93.606016
21
26.576706
31
0.0
0
LINE
8
Layer 1
62
4
5
3b4
100
AcDbEntity
100
AcDbLine
10
93.606016
20
26.576706
30
0.0
11
96.549037
21
25.452748
31
0.0
0
LINE
8
Layer 1
62
4
5
3b5
100
AcDbEntity
100
AcDbLine
10
96.549037
20
25.452748
30
0.0
11
98.878853
21
24.131400
31
0.0
0
LINE
8
Layer 1
62
4
5
3b6
100
AcDbEntity
100
AcDbLine
10
98.878853
20
24.131400
30
0.0
11
99.757005
21
23.406504
31
0.0
0
LINE
8
Layer 1
62
4
5
3b7
100
AcDbEntity
100
AcDbLine
10
99.757005
20
23.406504
30
0.0
11
100.413689
21
22.644019
31
0.0
0
LINE
8
Layer 1
62
4
5
3b8
100
AcDbEntity
100
AcDbLine
10
100.413689
20
22.644019
30
0.0
11
100.826182
21
21.847865
31
0.0
0
LINE
8
Layer 1
62
4
5
3b9
100
AcDbEntity
100
AcDbLine
10
100.826182
20
21.847865
30
0.0
11
100.971762
21
21.021963
31
0.0
0
LINE
8
Layer 1
62
4
5
3ba
100
AcDbEntity
100
AcDbLine
10
100.971762
20
21.021963
30
0.0
11
100.868199
21
20.146390
31
0.0
0
LINE
8
Layer 1
62
4
5
3bb
100
AcDbEntity
100
AcDbLine
10
100.868199
20
20.146390
30
0.0
11
100.511699
21
19.165181
31
0.0
0
LINE
8
Layer 1
62
4
5
3bc
100
AcDbEntity
100
AcDbLine
10
100.511699
20
19.165181
30
0.0
11
99.919695
21
18.101023
31
0.0
0
LINE
8
Layer 1
62
4
5
3bd
100
AcDbEntity
100
AcDbLine
10
99.919695
20
18.101023
30
0.0
11
99.109620
21
16.976604
31
0.0
0
LINE
8
Layer 1
62
4
5
3be
100
AcDbEntity
100
AcDbLine
10
99.109620
20
16.976604
30
0.0
11
96.904999
21
14.637727
31
0.0
0
LINE
8
Layer 1
62
4
5
3bf
100
AcDbEntity
100
AcDbLine
10
96.904999
20
14.637727
30
0.0
11
94.037305
21
12.330052
31
0.0
0
LINE
8
Layer 1
62
4
5
3c0
100
AcDbEntity
100
AcDbLine
10
94.037305
20
12.330052
30
0.0
11
90.646008
21
10.235075
31
0.0
0
LINE
8
Layer 1
62
4
5
3c1
100
AcDbEntity
100
AcDbLine
10
90.646008
20
10.235075
30
0.0
11
86.870580
21
8.534298
31
0.0
0
LINE
8
Layer 1
62
4
5
3c2
100
AcDbEntity
100
AcDbLine
10
86.870580
20
8.534298
30
0.0
11
84.882401
21
7.888453
31
0.0
0
LINE
8
Layer 1
62
4
5
3c3
100
AcDbEntity
100
AcDbLine
10
84.882401
20
7.888453
30
0.0
11
82.850492
21
7.409219
31
0.0
0
LINE
8
Layer 1
62
4
5
3c4
100
AcDbEntity
100
AcDbLine
10
82.850492
20
7.409219
30
0.0
11
80.792286
21
7.119285
31
0.0
0
LINE
8
Layer 1
62
4
5
3c5
100
AcDbEntity
100
AcDbLine
10
80.792286
20
7.119285
30
0.0
11
78.725217
21
7.041337
31
0.0
0
LINE
8
Layer 1
62
4
5
3c6
100
AcDbEntity
100
AcDbLine
10
78.725217
20
7.041337
30
0.0
11
76.591251
21
7.066022
31
0.0
0
LINE
8
Layer 1
62
4
5
3c7
100
AcDbEntity
100
AcDbLine
10
76.591251
20
7.066022
30
0.0
11
74.478759
21
7.308275
31
0.0
0
LINE
8
Layer 1
62
4
5
3c8
100
AcDbEntity
100
AcDbLine
10
74.478759
20
7.308275
30
0.0
11
72.404019
21
7.743548
31
0.0
0
LINE
8
Layer 1
62
4
5
3c9
100
AcDbEntity
100
AcDbLine
10
72.404019
20
7.743548
30
0.0
11
70.383310
21
8.347292
31
0.0
0
LINE
8
Layer 1
62
4
5
3ca
100
AcDbEntity
100
AcDbLine
10
70.383310
20
8.347292
30
0.0
11
66.569099
21
9.961999
31
0.0
0
LINE
8
Layer 1
62
4
5
3cb
100
AcDbEntity
100
AcDbLine
10
66.569099
20
9.961999
30
0.0
11
63.166354
21
11.956011
31
0.0
0
LINE
8
Layer 1
62
4
5
3cc
100
AcDbEntity
100
AcDbLine
10
63.166354
20
11.956011
30
0.0
11
60.305303
21
14.132944
31
0.0
0
LINE
8
Layer 1
62
4
5
3cd
100
AcDbEntity
100
AcDbLine
10
60.305303
20
14.132944
30
0.0
11
58.116171
21
16.296409
31
0.0
0
LINE
8
Layer 1
62
4
5
3ce
100
AcDbEntity
100
AcDbLine
10
58.116171
20
16.296409
30
0.0
11
56.729187
21
18.250017
31
0.0
0
LINE
8
Layer 1
62
4
5
3cf
100
AcDbEntity
100
AcDbLine
10
56.729187
20
18.250017
30
0.0
11
56.377196
21
19.086755
31
0.0
0
LINE
8
Layer 1
62
4
5
3d0
100
AcDbEntity
100
AcDbLine
10
56.377196
20
19.086755
30
0.0
11
56.274578
21
19.797384
31
0.0
0
LINE
8
Layer 1
62
4
5
3d1
100
AcDbEntity
100
AcDbLine
10
56.274578
20
19.797384
30
0.0
11
56.404698
21
20.721265
31
0.0
0
LINE
8
Layer 1
62
4
5
3d2
100
AcDbEntity
100
AcDbLine
10
56.404698
20
20.721265
30
0.0
11
56.840413
21
21.615007
31
0.0
0
LINE
8
Layer 1
62
4
5
3d3
100
AcDbEntity
100
AcDbLine
10
56.840413
20
21.615007
30
0.0
11
57.553704
21
22.474161
31
0.0
0
LINE
8
Layer 1
62
4
5
3d4
100
AcDbEntity
100
AcDbLine
10
57.553704
20
22.474161
30
0.0
11
58.516554
21
23.294278
31
0.0
0
LINE
8
Layer 1
62
4
5
3d5
100
AcDbEntity
100
AcDbLine
10
58.516554
20
23.294278
30
0.0
11
61.078852
21
24.799610
31
0.0
0
LINE
8
Layer 1
62
4
5
3d6
100
AcDbEntity
100
AcDbLine
10
61.078852
20
24.799610
30
0.0
11
64.303159
21
26.095410
31
0.0
0
LINE
8
Layer 1
62
4
5
3d7
100
AcDbEntity
100
AcDbLine
10
64.303159
20
26.095410
30
0.0
11
67.965329
21
27.146088
31
0.0
0
LINE
8
Layer 1
62
4
5
3d8
100
AcDbEntity
100
AcDbLine
10
67.965329
20
27.146088
30
0.0
11
71.841210
21
27.916053
31
0.0
0
LINE
8
Layer 1
62
4
5
3d9
100
AcDbEntity
100
AcDbLine
10
71.841210
20
27.916053
30
0.0
11
75.706653
21
28.369720
31
0.0
0
LINE
8
Layer 1
62
4
5
3da
100
AcDbEntity
100
AcDbLine
10
75.706653
20
28.369720
30
0.0
11
79.337510
21
28.471495
31
0.0
0
LINE
8
Layer 1
62
4
5
3db
100
AcDbEntity
100
AcDbLine
10
79.337510
20
28.471495
30
0.0
11
79.337510
21
28.471495
31
0.0
0
LINE
8
Layer 1
62
4
5
3dc
100
AcDbEntity
100
AcDbLine
10
45.253354
20
55.004070
30
0.0
11
47.539903
21
51.785929
31
0.0
0
LINE
8
Layer 1
62
4
5
3dd
100
AcDbEntity
100
AcDbLine
10
47.539903
20
51.785929
30
0.0
11
49.433838
21
48.191273
31
0.0
0
LINE
8
Layer 1
62
4
5
3de
100
AcDbEntity
100
AcDbLine
10
49.433838
20
48.191273
30
0.0
11
50.877708
21
44.405231
31
0.0
0
LINE
8
Layer 1
62
4
5
3df
100
AcDbEntity
100
AcDbLine
10
50.877708
20
44.405231
30
0.0
11
51.814061
21
40.612935
31
0.0
0
LINE
8
Layer 1
62
4
5
3e0
100
AcDbEntity
100
AcDbLine
10
51.814061
20
40.612935
30
0.0
11
52.185449
21
36.999512
31
0.0
0
LINE
8
Layer 1
62
4
5
3e1
100
AcDbEntity
100
AcDbLine
10
52.185449
20
36.999512
30
0.0
11
52.141326
21
35.317731
31
0.0
0
LINE
8
Layer 1
62
4
5
3e2
100
AcDbEntity
100
AcDbLine
10
52.141326
20
35.317731
30
0.0
11
51.934418
21
33.750092
31
0.0
0
LINE
8
Layer 1
62
4
5
3e3
100
AcDbEntity
100
AcDbLine
10
51.934418
20
33.750092
30
0.0
11
51.557540
21
32.319737
31
0.0
0
LINE
8
Layer 1
62
4
5
3e4
100
AcDbEntity
100
AcDbLine
10
51.557540
20
32.319737
30
0.0
11
51.003514
21
31.049807
31
0.0
0
LINE
8
Layer 1
62
4
5
3e5
100
AcDbEntity
100
AcDbLine
10
51.003514
20
31.049807
30
0.0
11
50.265158
21
29.963442
31
0.0
0
LINE
8
Layer 1
62
4
5
3e6
100
AcDbEntity
100
AcDbLine
10
50.265158
20
29.963442
30
0.0
11
49.335289
21
29.083785
31
0.0
0
LINE
8
Layer 1
62
4
5
3e7
100
AcDbEntity
100
AcDbLine
10
49.335289
20
29.083785
30
0.0
11
48.278594
21
28.550573
31
0.0
0
LINE
8
Layer 1
62
4
5
3e8
100
AcDbEntity
100
AcDbLine
10
48.278594
20
28.550573
30
0.0
11
47.064430
21
28.131387
31
0.0
0
LINE
8
Layer 1
62
4
5
3e9
100
AcDbEntity
100
AcDbLine
10
47.064430
20
28.131387
30
0.0
11
45.708988
21
27.836709
31
0.0
0
LINE
8
Layer 1
62
4
5
3ea
100
AcDbEntity
100
AcDbLine
10
45.708988
20
27.836709
30
0.0
11
44.228458
21
27.677020
31
0.0
0
LINE
8
Layer 1
62
4
5
3eb
100
AcDbEntity
100
AcDbLine
10
44.228458
20
27.677020
30
0.0
11
42.639032
21
27.662799
31
0.0
0
LINE
8
Layer 1
62
4
5
3ec
100
AcDbEntity
100
AcDbLine
10
42.639032
20
27.662799
30
0.0
11
40.956900
21
27.804530
31
0.0
0
LINE
8
Layer 1
62
4
5
3ed
100
AcDbEntity
100
AcDbLine
10
40.956900
20
27.804530
30
0.0
11
39.198252
21
28.112693
31
0.0
0
LINE
8
Layer 1
62
4
5
3ee
100
AcDbEntity
100
AcDbLine
10
39.198252
20
28.112693
30
0.0
11
37.379278
21
28.597770
31
0.0
0
LINE
8
Layer 1
62
4
5
3ef
100
AcDbEntity
100
AcDbLine
10
37.379278
20
28.597770
30
0.0
11
35.516167
21
29.270241
31
0.0
0
LINE
8
Layer 1
62
4
5
3f0
100
AcDbEntity
100
AcDbLine
10
35.516167
20
29.270241
30
0.0
11
33.625113
21
30.140588
31
0.0
0
LINE
8
Layer 1
62
4
5
3f1
100
AcDbEntity
100
AcDbLine
10
33.625113
20
30.140588
30
0.0
11
31.722304
21
31.219292
31
0.0
0
LINE
8
Layer 1
62
4
5
3f2
100
AcDbEntity
100
AcDbLine
10
31.722304
20
31.219292
30
0.0
11
29.823932
21
32.516834
31
0.0
0
LINE
8
Layer 1
62
4
5
3f3
100
AcDbEntity
100
AcDbLine
10
29.823932
20
32.516834
30
0.0
11
27.946188
21
34.043695
31
0.0
0
LINE
8
Layer 1
62
4
5
3f4
100
AcDbEntity
100
AcDbLine
10
27.946188
20
34.043695
30
0.0
11
26.105260
21
35.810356
31
0.0
0
LINE
8
Layer 1
62
4
5
3f5
100
AcDbEntity
100
AcDbLine
10
26.105260
20
35.810356
30
0.0
11
24.317340
21
37.827299
31
0.0
0
LINE
8
Layer 1
62
4
5
3f6
100
AcDbEntity
100
AcDbLine
10
24.317340
20
37.827299
30
0.0
11
22.598618
21
40.105005
31
0.0
0
LINE
8
Layer 1
62
4
5
3f7
100
AcDbEntity
100
AcDbLine
10
22.598618
20
40.105005
30
0.0
11
20.647273
21
44.145637
31
0.0
0
LINE
8
Layer 1
62
4
5
3f8
100
AcDbEntity
100
AcDbLine
10
20.647273
20
44.145637
30
0.0
11
19.295646
21
48.110964
31
0.0
0
LINE
8
Layer 1
62
4
5
3f9
100
AcDbEntity
100
AcDbLine
10
19.295646
20
48.110964
30
0.0
11
18.504418
21
51.907865
31
0.0
0
LINE
8
Layer 1
62
4
5
3fa
100
AcDbEntity
100
AcDbLine
10
18.504418
20
51.907865
30
0.0
11
18.234271
21
55.443224
31
0.0
0
LINE
8
Layer 1
62
4
5
3fb
100
AcDbEntity
100
AcDbLine
10
18.234271
20
55.443224
30
0.0
11
18.445887
21
58.623922
31
0.0
0
LINE
8
Layer 1
62
4
5
3fc
100
AcDbEntity
100
AcDbLine
10
18.445887
20
58.623922
30
0.0
11
19.099948
21
61.356841
31
0.0
0
LINE
8
Layer 1
62
4
5
3fd
100
AcDbEntity
100
AcDbLine
10
19.099948
20
61.356841
30
0.0
11
19.580609
21
62.526282
31
0.0
0
LINE
8
Layer 1
62
4
5
3fe
100
AcDbEntity
100
AcDbLine
10
19.580609
20
62.526282
30
0.0
11
20.157137
21
63.548858
31
0.0
0
LINE
8
Layer 1
62
4
5
3ff
100
AcDbEntity
100
AcDbLine
10
20.157137
20
63.548858
30
0.0
11
20.824616
21
64.412930
31
0.0
0
LINE
8
Layer 1
62
4
5
400
100
AcDbEntity
100
AcDbLine
10
20.824616
20
64.412930
30
0.0
11
21.578134
21
65.106858
31
0.0
0
LINE
8
Layer 1
62
4
5
401
100
AcDbEntity
100
AcDbLine
10
21.578134
20
65.106858
30
0.0
11
22.805978
21
65.725951
31
0.0
0
LINE
8
Layer 1
62
4
5
402
100
AcDbEntity
100
AcDbLine
10
22.805978
20
65.725951
30
0.0
11
24.106449
21
66.140394
31
0.0
0
LINE
8
Layer 1
62
4
5
403
100
AcDbEntity
100
AcDbLine
10
24.106449
20
66.140394
30
0.0
11
25.471178
21
66.358311
31
0.0
0
LINE
8
Layer 1
62
4
5
404
100
AcDbEntity
100
AcDbLine
10
25.471178
20
66.358311
30
0.0
11
26.891800
21
66.387828
31
0.0
0
LINE
8
Layer 1
62
4
5
405
100
AcDbEntity
100
AcDbLine
10
26.891800
20
66.387828
30
0.0
11
28.359948
21
66.237065
31
0.0
0
LINE
8
Layer 1
62
4
5
406
100
AcDbEntity
100
AcDbLine
10
28.359948
20
66.237065
30
0.0
11
29.867254
21
65.914151
31
0.0
0
LINE
8
Layer 1
62
4
5
407
100
AcDbEntity
100
AcDbLine
10
29.867254
20
65.914151
30
0.0
11
32.965875
21
64.784368
31
0.0
0
LINE
8
Layer 1
62
4
5
408
100
AcDbEntity
100
AcDbLine
10
32.965875
20
64.784368
30
0.0
11
36.120731
21
63.063469
31
0.0
0
LINE
8
Layer 1
62
4
5
409
100
AcDbEntity
100
AcDbLine
10
36.120731
20
63.063469
30
0.0
11
39.264886
21
60.816456
31
0.0
0
LINE
8
Layer 1
62
4
5
40a
100
AcDbEntity
100
AcDbLine
10
39.264886
20
60.816456
30
0.0
11
42.331404
21
58.108324
31
0.0
0
LINE
8
Layer 1
62
4
5
40b
100
AcDbEntity
100
AcDbLine
10
42.331404
20
58.108324
30
0.0
11
45.253354
21
55.004070
31
0.0
0
LINE
8
Layer 1
62
4
5
40c
100
AcDbEntity
100
AcDbLine
10
45.253354
20
55.004070
30
0.0
11
45.253354
21
55.004070
31
0.0
0
LINE
8
Layer 1
62
4
5
40d
100
AcDbEntity
100
AcDbLine
10
112.106764
20
57.513567
30
0.0
11
109.600521
21
54.103262
31
0.0
0
LINE
8
Layer 1
62
4
5
40e
100
AcDbEntity
100
AcDbLine
10
109.600521
20
54.103262
30
0.0
11
107.459831
21
50.250875
31
0.0
0
LINE
8
Layer 1
62
4
5
40f
100
AcDbEntity
100
AcDbLine
10
107.459831
20
50.250875
30
0.0
11
105.754938
21
46.157424
31
0.0
0
LINE
8
Layer 1
62
4
5
410
100
AcDbEntity
100
AcDbLine
10
105.754938
20
46.157424
30
0.0
11
104.556080
21
42.023930
31
0.0
0
LINE
8
Layer 1
62
4
5
411
100
AcDbEntity
100
AcDbLine
10
104.556080
20
42.023930
30
0.0
11
103.933502
21
38.051416
31
0.0
0
LINE
8
Layer 1
62
4
5
412
100
AcDbEntity
100
AcDbLine
10
103.933502
20
38.051416
30
0.0
11
103.860268
21
36.188344
31
0.0
0
LINE
8
Layer 1
62
4
5
413
100
AcDbEntity
100
AcDbLine
10
103.860268
20
36.188344
30
0.0
11
103.957445
21
34.440899
31
0.0
0
LINE
8
Layer 1
62
4
5
414
100
AcDbEntity
100
AcDbLine
10
103.957445
20
34.440899
30
0.0
11
104.233812
21
32.834207
31
0.0
0
LINE
8
Layer 1
62
4
5
415
100
AcDbEntity
100
AcDbLine
10
104.233812
20
32.834207
30
0.0
11
104.698150
21
31.393397
31
0.0
0
LINE
8
Layer 1
62
4
5
416
100
AcDbEntity
100
AcDbLine
10
104.698150
20
31.393397
30
0.0
11
105.359239
21
30.143596
31
0.0
0
LINE
8
Layer 1
62
4
5
417
100
AcDbEntity
100
AcDbLine
10
105.359239
20
30.143596
30
0.0
11
106.225859
21
29.109932
31
0.0
0
LINE
8
Layer 1
62
4
5
418
100
AcDbEntity
100
AcDbLine
10
106.225859
20
29.109932
30
0.0
11
107.250497
21
28.450379
31
0.0
0
LINE
8
Layer 1
62
4
5
419
100
AcDbEntity
100
AcDbLine
10
107.250497
20
28.450379
30
0.0
11
108.453550
21
27.905192
31
0.0
0
LINE
8
Layer 1
62
4
5
41a
100
AcDbEntity
100
AcDbLine
10
108.453550
20
27.905192
30
0.0
11
109.817687
21
27.487231
31
0.0
0
LINE
8
Layer 1
62
4
5
41b
100
AcDbEntity
100
AcDbLine
10
109.817687
20
27.487231
30
0.0
11
111.325581
21
27.209358
31
0.0
0
LINE
8
Layer 1
62
4
5
41c
100
AcDbEntity
100
AcDbLine
10
111.325581
20
27.209358
30
0.0
11
112.959900
21
27.084435
31
0.0
0
LINE
8
Layer 1
62
4
5
41d
100
AcDbEntity
100
AcDbLine
10
112.959900
20
27.084435
30
0.0
11
114.703317
21
27.125323
31
0.0
0
LINE
8
Layer 1
62
4
5
41e
100
AcDbEntity
100
AcDbLine
10
114.703317
20
27.125323
30
0.0
11
116.538504
21
27.344882
31
0.0
0
LINE
8
Layer 1
62
4
5
41f
100
AcDbEntity
100
AcDbLine
10
116.538504
20
27.344882
30
0.0
11
118.448130
21
27.755974
31
0.0
0
LINE
8
Layer 1
62
4
5
420
100
AcDbEntity
100
AcDbLine
10
118.448130
20
27.755974
30
0.0
11
120.414868
21
28.371458
31
0.0
0
LINE
8
Layer 1
62
4
5
421
100
AcDbEntity
100
AcDbLine
10
120.414868
20
28.371458
30
0.0
11
122.421388
21
29.204198
31
0.0
0
LINE
8
Layer 1
62
4
5
422
100
AcDbEntity
100
AcDbLine
10
122.421388
20
29.204198
30
0.0
11
124.450361
21
30.267055
31
0.0
0
LINE
8
Layer 1
62
4
5
423
100
AcDbEntity
100
AcDbLine
10
124.450361
20
30.267055
30
0.0
11
126.484456
21
31.572889
31
0.0
0
LINE
8
Layer 1
62
4
5
424
100
AcDbEntity
100
AcDbLine
10
126.484456
20
31.572889
30
0.0
11
128.506348
21
33.134561
31
0.0
0
LINE
8
Layer 1
62
4
5
425
100
AcDbEntity
100
AcDbLine
10
128.506348
20
33.134561
30
0.0
11
130.498706
21
34.964933
31
0.0
0
LINE
8
Layer 1
62
4
5
426
100
AcDbEntity
100
AcDbLine
10
130.498706
20
34.964933
30
0.0
11
132.444200
21
37.076865
31
0.0
0
LINE
8
Layer 1
62
4
5
427
100
AcDbEntity
100
AcDbLine
10
132.444200
20
37.076865
30
0.0
11
134.325501
21
39.483219
31
0.0
0
LINE
8
Layer 1
62
4
5
428
100
AcDbEntity
100
AcDbLine
10
134.325501
20
39.483219
30
0.0
11
135.554303
21
41.268844
31
0.0
0
LINE
8
Layer 1
62
4
5
429
100
AcDbEntity
100
AcDbLine
10
135.554303
20
41.268844
30
0.0
11
136.571209
21
43.172898
31
0.0
0
LINE
8
Layer 1
62
4
5
42a
100
AcDbEntity
100
AcDbLine
10
136.571209
20
43.172898
30
0.0
11
137.387714
21
45.169923
31
0.0
0
LINE
8
Layer 1
62
4
5
42b
100
AcDbEntity
100
AcDbLine
10
137.387714
20
45.169923
30
0.0
11
138.015308
21
47.234464
31
0.0
0
LINE
8
Layer 1
62
4
5
42c
100
AcDbEntity
100
AcDbLine
10
138.015308
20
47.234464
30
0.0
11
138.465485
21
49.341063
31
0.0
0
LINE
8
Layer 1
62
4
5
42d
100
AcDbEntity
100
AcDbLine
10
138.465485
20
49.341063
30
0.0
11
138.749735
21
51.464264
31
0.0
0
LINE
8
Layer 1
62
4
5
42e
100
AcDbEntity
100
AcDbLine
10
138.749735
20
51.464264
30
0.0
11
138.866426
21
55.658645
31
0.0
0
LINE
8
Layer 1
62
4
5
42f
100
AcDbEntity
100
AcDbLine
10
138.866426
20
55.658645
30
0.0
11
138.457319
21
59.613949
31
0.0
0
LINE
8
Layer 1
62
4
5
430
100
AcDbEntity
100
AcDbLine
10
138.457319
20
59.613949
30
0.0
11
137.614352
21
63.126524
31
0.0
0
LINE
8
Layer 1
62
4
5
431
100
AcDbEntity
100
AcDbLine
10
137.614352
20
63.126524
30
0.0
11
136.429462
21
65.992712
31
0.0
0
LINE
8
Layer 1
62
4
5
432
100
AcDbEntity
100
AcDbLine
10
136.429462
20
65.992712
30
0.0
11
135.737526
21
67.119770
31
0.0
0
LINE
8
Layer 1
62
4
5
433
100
AcDbEntity
100
AcDbLine
10
135.737526
20
67.119770
30
0.0
11
134.994585
21
68.008861
31
0.0
0
LINE
8
Layer 1
62
4
5
434
100
AcDbEntity
100
AcDbLine
10
134.994585
20
68.008861
30
0.0
11
133.828640
21
68.764042
31
0.0
0
LINE
8
Layer 1
62
4
5
435
100
AcDbEntity
100
AcDbLine
10
133.828640
20
68.764042
30
0.0
11
132.605544
21
69.279843
31
0.0
0
LINE
8
Layer 1
62
4
5
436
100
AcDbEntity
100
AcDbLine
10
132.605544
20
69.279843
30
0.0
11
131.329987
21
69.567243
31
0.0
0
LINE
8
Layer 1
62
4
5
437
100
AcDbEntity
100
AcDbLine
10
131.329987
20
69.567243
30
0.0
11
130.006657
21
69.637219
31
0.0
0
LINE
8
Layer 1
62
4
5
438
100
AcDbEntity
100
AcDbLine
10
130.006657
20
69.637219
30
0.0
11
128.640240
21
69.500747
31
0.0
0
LINE
8
Layer 1
62
4
5
439
100
AcDbEntity
100
AcDbLine
10
128.640240
20
69.500747
30
0.0
11
127.235424
21
69.168806
31
0.0
0
LINE
8
Layer 1
62
4
5
43a
100
AcDbEntity
100
AcDbLine
10
127.235424
20
69.168806
30
0.0
11
125.796900
21
68.652373
31
0.0
0
LINE
8
Layer 1
62
4
5
43b
100
AcDbEntity
100
AcDbLine
10
125.796900
20
68.652373
30
0.0
11
124.329354
21
67.962424
31
0.0
0
LINE
8
Layer 1
62
4
5
43c
100
AcDbEntity
100
AcDbLine
10
124.329354
20
67.962424
30
0.0
11
121.325947
21
66.105890
31
0.0
0
LINE
8
Layer 1
62
4
5
43d
100
AcDbEntity
100
AcDbLine
10
121.325947
20
66.105890
30
0.0
11
118.262710
21
63.687023
31
0.0
0
LINE
8
Layer 1
62
4
5
43e
100
AcDbEntity
100
AcDbLine
10
118.262710
20
63.687023
30
0.0
11
115.177148
21
60.793643
31
0.0
0
LINE
8
Layer 1
62
4
5
43f
100
AcDbEntity
100
AcDbLine
10
115.177148
20
60.793643
30
0.0
11
112.106764
21
57.513567
31
0.0
0
LINE
8
Layer 1
62
4
5
440
100
AcDbEntity
100
AcDbLine
10
112.106764
20
57.513567
30
0.0
11
112.106764
21
57.513567
31
0.0
0
LINE
8
Layer 1
62
4
5
441
100
AcDbEntity
100
AcDbLine
10
112.106764
20
57.513567
30
0.0
11
112.106764
21
57.513567
31
0.0
  0
ENDSEC
  0
SECTION
  2
OBJECTS
  0
DICTIONARY
  5
C
330
0
100
AcDbDictionary
  3
ACAD_GROUP
350
D
  3
ACAD_MLINESTYLE
350
17
  0
DICTIONARY
  5
D
330
C
100
AcDbDictionary
  0
DICTIONARY
  5
1A
330
C
100
AcDbDictionary
  0
DICTIONARY
  5
17
330
C
100
AcDbDictionary
  3
STANDARD
350
18
  0
DICTIONARY
  5
19
330
C
100
AcDbDictionary
  0
ENDSEC
  0
EOF
